<svg id="Layer_1" data-name="Layer 1" xmlns="http://www.w3.org/2000/svg" viewBox="0 0 539.66 539.46">
  <g id="yesfill">
    <path d="M285.16,18.11c-148,0-267.9,119.82-267.9,267.62S137.2,553.36,285.16,553.36s267.9-119.82,267.9-267.63S433.12,18.11,285.16,18.11ZM151.8,418.29c-1.58-1.57-3.12-3.17-4.64-4.8q-4.68-5-9-10.37c-.91-1.13-1.8-2.28-2.69-3.43a.86.86,0,0,1-.07-.1c-.71-.92-1.4-1.84-2.08-2.77A187.63,187.63,0,0,1,96.89,295a1.93,1.93,0,0,1,0-.24c-.08-1.61-.14-3.22-.18-4.84s-.06-3.06-.06-4.6,0-3.24.06-4.86a187.44,187.44,0,0,1,31.73-100.19s0,0,0,0A188.41,188.41,0,0,1,284.86,96.63q3.33,0,6.64.12,8.38.28,16.57,1.3a187.33,187.33,0,0,1,93.49,39.17l1.27,1c.88.71,1.75,1.42,2.61,2.14q2.83,2.37,5.55,4.83a188,188,0,0,1,62.09,139.85c0,103.25-83,187.1-185.79,188.4-.69,0-1.39,0-2.08,0l-2.44,0q-3.66,0-7.27-.22A187.33,187.33,0,0,1,151.8,418.29Z" transform="translate(-15.37 -15.82)" style="fill: #fff"/>
    <path d="M411,145.15c-1.82-1.63-3.68-3.23-5.56-4.78-.87-.73-1.75-1.44-2.64-2.14l-1.27-1A188.11,188.11,0,0,0,308.73,98.6q-8.46-1-17.14-1.34c-2.12-.07-4.24-.11-6.38-.11A188.29,188.29,0,0,0,96.7,280.45q-.06,2.43-.06,4.86c0,1.54,0,3.07.06,4.6s.1,3.23.18,4.84a1.93,1.93,0,0,0,0,.24,186.81,186.81,0,0,0,36.43,101.83c.68.93,1.37,1.85,2.08,2.77a.86.86,0,0,0,.07.1c.89,1.15,1.78,2.3,2.69,3.43q4.32,5.34,9,10.37c1.52,1.63,3.06,3.23,4.64,4.8a188.16,188.16,0,0,0,123.7,54.94q3.63.18,7.27.22l2.44,0c.69,0,1.39,0,2.08,0,103.19-1.1,186.5-84.91,186.5-188.14A187.51,187.51,0,0,0,411,145.15ZM376.5,426.44c.65-8,1.45-16,2.17-24,.38-4.22.67-8.45,1.12-12.66.51-4.76,1.21-9.5,1.71-14.26.61-5.82,1.14-11.65,1.63-17.48.25-3,.39-6,.5-9a11.49,11.49,0,0,0-.38-2.36l-.62,0a12,12,0,0,0-.6,2c-.65,5.72-1.26,11.45-1.88,17.17,0,.21-.09.41-.22,1-.54-.92-.86-1.55-1.25-2.13-2.6-4-5.2-7.93-7.86-11.86a1.59,1.59,0,0,1-.06-2.08c3.07-4.59,6.05-9.25,9.14-13.82a2.17,2.17,0,0,0,.05-2.72c-2.84-4.79-5.48-9.7-8.43-14.42-1.78-2.84-4-5.41-6-8.09-.09-.12-.63-.9-1.12-1.5a41,41,0,0,0,12.37-9.89c1.87-2.23,3.18-4.94,4.74-7.42.16-.27.33-.52.63-1,1.06.94,2.08,1.78,3,2.68a65,65,0,0,1,12.44,16.63c3,5.64,5.91,11.35,7.38,17.62a115.07,115.07,0,0,1,2.17,11.78c.51,4,.54,8,.92,12,.59,6.11-.45,12.15-.68,18.22s-.61,12.35-1,18.51c-.2,3.13-.57,6.24-.91,9.36-.59,5.49-1.19,11-1.84,16.46q-.88,7.41-1.95,14.79a2.81,2.81,0,0,1-1.22,1.53c-6.37,4.45-12.76,8.89-19.19,13.26-1.67,1.14-3.5,2-5.26,3a6.65,6.65,0,0,1-1,.38C375.51,440.75,375.92,433.59,376.5,426.44Zm30.69-21.81.25-.05c.39,1.29.79,2.56,1.15,3.86,1.12,4.06,2.24,8.13,3.31,12.21a1.43,1.43,0,0,1-.19,1.2c-2.27,2.09-4.59,4.11-6.9,6.14-.09.08-.25.06-.42.1Z" transform="translate(-15.37 -15.82)" style="fill: #fff"/>
    <polygon points="158.22 282.08 166.2 274.8 174.46 269.73 181.05 266.54 189.59 264.24 197.5 262.98 204.36 262.39 212.94 262.98 220.47 265.5 225.6 267.85 231.35 265.28 235.78 266.54 239.25 268.75 242.8 272.23 246.34 278.1 248.08 281.19 251.02 283.7 254.94 289.26 259.16 298.54 260.91 305.55 261.95 317.77 261.95 330.48 260.25 339.86 258.53 345.82 253.59 360.05 245.23 371.64 235.65 378.82 223.96 383.64 211.56 387.17 202.58 387.88 194.72 387.37 185.39 385.36 176.57 381.93 170.42 378.82 163.16 372.95 158.22 367.01 157.62 365.39 154.97 365.9 149.46 364.89 144.72 361.76 142.4 357.43 141.79 352.69 142.97 348.46 145.32 344.93 147.44 342.72 146.14 338.15 145.05 328.99 145.05 320.64 146.44 306.82 148.43 298.77 152.31 289.62 158.22 282.08" style="fill: #fff"/>
    <polygon points="173.14 270.43 164.94 275.94 160.1 280.36 155.38 285.15 151.78 291.21 148.49 298.67 146.21 306.45 145.43 315.55 144.9 323.87 144.9 327.11 145.78 335.94 146.83 340.76 147.53 342.77 145.43 345.13 142.97 348.72 139.74 344.43 135.63 337.78 132.39 332 129.06 325.13 127.75 320.72 127.14 315.29 127.66 308.38 127.84 297.27 128.42 291.14 129.67 285.28 132.39 279.06 135.8 274.8 138.95 268.21 142.19 262.39 145.34 258.41 150.94 253.95 157.02 249.4 162.93 245.46 170.63 241.61 179.17 240.45 191.68 238.76 204.03 238.27 212.94 239.01 221.02 242.33 231.35 249.35 238 253.97 244.34 260.94 248.59 268.24 251.34 273.82 252.86 280.36 253.76 287.36 250.36 283.14 248.02 280.99 245.5 276.33 241.92 271.3 238.45 268.24 236.26 266.84 231.87 268.24 228.54 266.54 225.5 268.24 221.1 265.74 214.82 263.46 207.56 262.39 201.12 262.67 193.29 263.46 186.48 265.02 179.73 267.17 173.14 270.43" style="fill: #fff"/>
    <polygon points="384.6 230.13 393.22 225.12 402.66 221.26 393.88 215.44 391.08 212.4 386.9 205.42 381.73 199.18 389.85 190.07 396.26 184.65 403.4 178.82 407.09 175.28 401.31 173.37 395.99 171.19 389.14 167.7 381.23 162.86 386.07 151.05 389.5 141.01 392.68 134.99 397.64 128.37 402.25 118.92 392.8 122.7 387.61 123.65 376.62 124.71 362.81 126.6 365.99 108.3 367.06 96.84 366.23 88.93 363.87 80.19 360.8 74.05 357.37 68.97 350.82 80.81 339.54 97.19 325.01 112.31 316.63 101.8 310.84 95.89 302.57 89.67 293.59 81.33 281.47 72.22 271.85 65.11 275.16 81.04 276.09 96.07 277.26 114.2 276.66 132.44 261.63 131.83 245.4 131.53 235.38 130.7 225.56 130.23 228.97 136.94 235.28 146.66 242.29 155.88 250.78 166.88 256.42 174.01 246.5 178.62 239.89 181.33 230.57 182.93 217.95 185.99 213.74 188.04 221.76 193.15 231.37 200.16 242.09 208.88 252.57 213.54 226.78 239.29 259.69 242.2 252.31 265.08 275.16 265.08 275.16 283.54 287.82 279.11 286.16 275.57 284.06 270.91 281.29 262.39 279.4 255.26 278.4 255.26 275.08 254.67 271.47 253.51 268.66 250.54 266.85 246.66 266.3 242.07 266.85 237.9 268.12 233.9 270.18 231.12 272.59 229.13 275.13 227.55 274.17 221.02 272.96 208.98 272.59 199.61 272.53 188.24 272.65 178.2 274.29 168.94 277.13 160.29 281.3 152.79 286.32 146.2 292.74 139.97 300.18 134.83 306.04 131.92 311.37 130.7 319.89 129.56 326.55 129.56 335.86 131.14 342.45 133.44 349.47 137.19 354.61 140.03 359.21 142.57 362.05 145.47 363.02 148.56 362.54 151.28 361.44 154.01 364.74 164.66 366.47 171.19 367.81 179.14 370.9 183.49 374.12 191.44 374.79 198.26 373.29 204.56 371.49 209.96 371.83 216.79 371.83 223.16 371.4 237.63 370.19 251.17 369.55 259.36 368.67 265.25 373.63 264.42 379.32 262.86 376.37 253.8 379.32 253.26 387.48 251.95 390.5 251.27 386.4 247.66 378.8 241.14 379.32 235.97 379.32 232.66 384.6 230.13" style="fill: #fff"/>
    <path d="M354.47,300.08a1.27,1.27,0,0,1-2,1.07,6.29,6.29,0,0,1-1.87-2.72c-.27-.85.64-1.2,1.48-1.11A3.32,3.32,0,0,1,354.47,300.08Z" transform="translate(-15.37 -15.82)" style="fill: #f5f5f5"/>
    <path d="M331.77,297.42l-.79,1.11c-.38-.34-.78-.64-1.12-1a1,1,0,0,1-.32-.74c.1-.64.19-1.72.51-1.8.95-.26,1.41.54,1.62,1.41A7.27,7.27,0,0,1,331.77,297.42Z" transform="translate(-15.37 -15.82)" style="fill: #f5f5f5"/>
    <path d="M348.32,282.85c-2.39,1.1-4,2.65-3.69,5.63a48.18,48.18,0,0,1,0,5.24,3.17,3.17,0,0,1,0,.69c-.29,1.19-.7,2.42-2,2.75s-1.92-.77-2.4-1.67a20,20,0,0,1-1.83-4.3,8.53,8.53,0,0,0-4.83-5.68,12.48,12.48,0,0,1-5.3-4.69,16.08,16.08,0,0,1-.74-1.61,145,145,0,0,1,22.61-1.06A3.54,3.54,0,0,1,348.32,282.85Z" transform="translate(-15.37 -15.82)" style="fill: #f5f5f5"/>
    <path d="M339,206.48c-2.29-7.08-7.27-11.67-14-14.45a18.8,18.8,0,0,0-13-1c-7.67,2.4-13,7.4-15.24,15.35a25,25,0,0,0,1.41,18.4,19.69,19.69,0,0,0,15.73,11.41,26.6,26.6,0,0,0,15.76-3c4.27-2.14,7.79-5.1,9-9.88.84-3.22,1.09-6.6,1.62-10A55.61,55.61,0,0,0,339,206.48Zm-8.76,11c-.8,1.67-.91,1.7-2.34.68a2,2,0,0,0-.5-.21l-1.61-.55c.32-.9-.44-2.12,1-2.74.56-.24.76-1.3,1.32-1.56.35-.16,1.05.58,1.63.76a2.63,2.63,0,0,0,1.07,0,15,15,0,0,1,1.14,2.54C332.27,218,331,217.45,330.2,217.5Z" transform="translate(-15.37 -15.82)" style="fill: #f5f5f5"/>
    <path d="M387.44,204.58c-1.57-4.2-3.86-8-7.75-10.3-5.75-3.4-11.92-4.36-18.41-2.06s-11,6.39-12.72,13.19A35.84,35.84,0,0,0,347.8,218a14.62,14.62,0,0,0,5.27,10,20.7,20.7,0,0,0,14.59,5.13,20.22,20.22,0,0,0,12.17-3.46c2-1.3,4.28-2.73,5.5-4.68A22.39,22.39,0,0,0,387.44,204.58Zm-22.05,10.33c-.16.66-.13,1.71-.52,1.9a9.33,9.33,0,0,0-3.1,2,4,4,0,0,1-.77-.6c-.19-.19-.24-.59-.44-.67-1.33-.52-1.06-1.26-.33-2-.62-1.75-.47-2,1.21-1.86a.85.85,0,0,0,.62-.17c.72-.84,1.34-.78,2,.07C364.48,214,365.67,213.77,365.39,214.91Z" transform="translate(-15.37 -15.82)" style="fill: #f5f5f5"/>
    <path d="M386.25,228.34l-.45-.08c-.71.57-1.39,1.18-2.13,1.71s-1.53,1-2.31,1.5c-9.07,5.46-18.16,5.57-27.26.1-4.81-2.89-7.42-7.22-8.44-12.66-.67-3.56-.21-7.07.09-10.6a19.54,19.54,0,0,1,4.42-11.26c7.59-8.88,19.54-10.5,29.68-5.43.6.3,1.14.7,2.07,1.28-.27-1-.45-1.66-.61-2.29-1.53-5.91-3-11.83-4.62-17.72a4.64,4.64,0,0,0-1.58-2.75c-6.62-3.7-13.17-7.3-21.14-7.79-10-.61-19.22.59-27.38,6.73-6.11,4.59-12.12,9.32-18.22,13.93a76.17,76.17,0,0,1-6.72,4.55,5.38,5.38,0,0,1-3.16.68c-2.17-.27-3.36-2.79-2.63-5.21a16.24,16.24,0,0,1,4.38-6.95c6.85-6.64,13.76-13.16,21.86-18.36,9.66-6.2,19.92-9.34,31.43-7.8.62.09,1.26.07,1.89.1,0-.17.06-.33.08-.49-2.4-.69-4.76-1.55-7.21-2a53.36,53.36,0,0,0-17.06-.55c-5.1.66-10.19,1.69-14.57,4.39-10.24,6.31-18.56,14.48-23.07,26-2.29,5.85-4.18,11.81-4.31,18.15-.14,6.87-.26,13.75-.16,20.61A147.64,147.64,0,0,0,290,231.4c1.06,8.77,2.38,17.51,3.77,26.23,1.35,8.44,2.55,16.92,5.4,25a59.31,59.31,0,0,0,10.18,18.8c5.48,6.55,12.7,9.88,20.82,11.53,6.41,1.3,12.83.59,19.26-.28a41.44,41.44,0,0,0,22.81-10.86,33.18,33.18,0,0,0,9.82-17.08,93.92,93.92,0,0,0,2.69-17.72c.25-4.73.73-9.46.94-14.2.27-6.17.39-12.34.55-18.52C386.29,232.34,386.25,230.34,386.25,228.34Zm-31.12-44.91c4.81-2.66,13.2-2.19,15.81,1.25a6.85,6.85,0,0,1-1.52-.18c-4.47-1.69-9-1.85-13.22.37-2.05,1.08-3.67,3-5.45,4.54a11.84,11.84,0,0,1-1.95,1.69A12.37,12.37,0,0,1,355.13,183.43Zm-1.05,53a17.61,17.61,0,0,1,1.73,1c2.51,1.91,5.06,3.69,8.24,4.33,4.63.92,9,.41,12.87-2.47a4.5,4.5,0,0,1,1.13-.44l.22.35a7.7,7.7,0,0,1-3.83,3.42,16.93,16.93,0,0,1-12.42.3c-2.37-.81-4.47-2.47-6.59-3.9a9,9,0,0,1-1.71-2.2Zm-7.53,20.14a10.06,10.06,0,0,0,2.19-6.14c.24-4.17.34-8.36.32-12.54,0-2.16-.37-4.31-.56-6.47a10.25,10.25,0,0,1,0-1.11l.48-.15a10.92,10.92,0,0,1,.87,1.37,21.47,21.47,0,0,1,1.69,9.7,113.7,113.7,0,0,1-1.1,12.36,7.73,7.73,0,0,1-3.75,5.84,4.59,4.59,0,0,1-6.75-2.08,27.47,27.47,0,0,1-1.88-16.85,4.29,4.29,0,0,1,.69-1.25l.54.1c.12,1,.26,1.94.35,2.91.3,3.25.5,6.51.9,9.75a15.21,15.21,0,0,0,1.16,3.92C342.64,258.14,345,258.4,346.55,256.55Zm-14.34-71.31c3,1.68,5.41,4.82,5.17,6.07-2.61-1.85-5.07-4.19-8-5.5s-6.15-1.49-9.23-2.33C324.51,181.76,328.46,183.13,332.21,185.24Zm-35.82,41.18c-3.52-6.53-3.93-13.64-1.82-20.8,2.67-9,8.77-14.68,17.76-17a21.33,21.33,0,0,1,13.91,1.46A26.11,26.11,0,0,1,339.56,202a25.5,25.5,0,0,1,2.5,15.28c-.4,3.39-.78,6.77-2.43,9.83-2.37,4.42-6.29,7-10.72,8.95-3.83,1.66-7.83,2.69-10.25,2.57C307.58,238.63,300.7,234.38,296.39,226.42Zm5.17,14,.33-.29c2.9,2.1,5.74,4.19,9.38,4.92s7.25,1.15,10.79.12c3.37-1,6.58-2.48,9.87-3.75l.27.25a23.14,23.14,0,0,1-2.74,2.43,21.31,21.31,0,0,1-9.86,3.24,22.92,22.92,0,0,1-12.4-1.95c-2-1-3.63-2.72-5.4-4.15C301.62,241.1,301.63,240.71,301.56,240.43Zm15,47.47c-3.22,1.6-6.5,2.59-10.05,1a4.8,4.8,0,0,1-2.57-6.52,9.36,9.36,0,0,1,7.26-5.55,2,2,0,0,1,.81.17l.06.32-1.49.83a10.8,10.8,0,0,0-5,4.79,3.19,3.19,0,0,0,2,4.59,10.87,10.87,0,0,0,5.85.17c1.08-.28,2.17-.45,3.52-.73C316.79,287.47,316.75,287.81,316.58,287.9ZM333,298.77a2.12,2.12,0,0,1-3.6.71,4.5,4.5,0,0,1-1.5-3.71,3.32,3.32,0,0,1,1.55-2.32c1.21-.67,2.35.14,3.08,1.14a9.55,9.55,0,0,1,.95,2.26A12.17,12.17,0,0,1,333,298.77Zm21.67,3.7a2.63,2.63,0,0,1-3.43-.24,7.66,7.66,0,0,1-2-3.73c-.36-2.12,1.75-3.35,3.78-2.51s2.66,2.38,3.18,4.59A8.14,8.14,0,0,1,354.65,302.47Zm-2.1-24.41a16.25,16.25,0,0,1-1,3.86,6.38,6.38,0,0,1-2.47,2.55c-1.66.93-2.83,1.89-2.66,4a43.19,43.19,0,0,1,0,5.8,6.47,6.47,0,0,1-.71,2.5c-1.41,2.77-4.49,3.16-6.23.63a23.52,23.52,0,0,1-2.78-5.78,7.46,7.46,0,0,0-4.08-4.61,14.2,14.2,0,0,1-7.07-7.52,108.54,108.54,0,0,1-14.4,3.66c-.08-.2-.15-.41-.23-.62a28.13,28.13,0,0,1,3.53-1.92,60.5,60.5,0,0,1,20.25-4.43c6-.14,12.09-.48,18.11-.21a87,87,0,0,1,12.66,2,66.7,66.7,0,0,1,6.83,2,1.49,1.49,0,0,1,.57.36c.09.08.11.24.29.72a14.5,14.5,0,0,1-2.3,0c-3.17-.52-6.34-1.14-9.52-1.67C358.41,278.92,355.46,278.5,352.55,278.06ZM378,285.91a8.23,8.23,0,0,1-7.61,2.57,1.34,1.34,0,0,1-.83-.82l4.29-1.19c3.66-1,4.89-4.16,3-7.46-1.11-1.93-2.92-2.87-4.78-3.8l-2-1c.1-.24.2-.48.29-.72,1.28.36,2.59.64,3.84,1.1C378.21,276,381.32,281.88,378,285.91Z" transform="translate(-15.37 -15.82)" style="fill: #f5f5f5"/>
    <path d="M376.21,168.33c-3-1.52-5.93-3-8.81-4.49a29.49,29.49,0,0,0-11.6-3.27,58.83,58.83,0,0,0-16.12.45,35.18,35.18,0,0,0-14.57,6.66c-7,5.27-13.9,10.78-20.9,16.1a17.75,17.75,0,0,1-4.37,2.31c-1.35.52-2.13-.06-2-1.5a7.41,7.41,0,0,1,1.08-3.47,31.1,31.1,0,0,1,4.55-5.52c5-4.52,9.92-9.13,15.28-13.16,5.77-4.35,12-8,19.17-9.84,4.58-1.18,9.22-1,13.88-.85,7.77.27,14.71,3.06,21.27,7a9.28,9.28,0,0,1,4,4.26C377.77,164.62,377.38,167.39,376.21,168.33Z" transform="translate(-15.37 -15.82)" style="fill: #f5f5f5"/>
    <path d="M293.45,269.79a9,9,0,0,1-6-1.64,11,11,0,0,1-4.34-7.7c-.45-4.27-.09-8.4,2.69-11.9a30.61,30.61,0,0,1,3.61-3.29C290.81,253.68,292.12,261.65,293.45,269.79Z" transform="translate(-15.37 -15.82)" style="fill: #f5f5f5"/>
    <path d="M393.66,252.93c-.36,4.41-3.74,9.31-6.46,9.37q.76-10.91,1.54-21.8C391.93,241.11,394.18,246.66,393.66,252.93Z" transform="translate(-15.37 -15.82)" style="fill: #f5f5f5"/>
    <path d="M209.89,311.52c-11.68-6.17-21.4-4.5-29.55,6,0-1.3-.07-2.29,0-3.27.36-4.33,1.29-8.46,4.2-11.91a2.26,2.26,0,0,1,2.39-1,4.09,4.09,0,0,0,4.3-1.58,3,3,0,0,1,3.16-1.06c6.16.91,10.45,4.5,13.72,9.53C208.73,309.23,209.2,310.26,209.89,311.52Z" transform="translate(-15.37 -15.82)" style="fill: #f5f5f5"/>
    <path d="M259.71,301.52c-7.7-2.61-14.59-1.63-21,3.21.4-6,3.92-14.63,6.82-16.92a3.76,3.76,0,0,0,5.06-.18C255.09,291.16,257.88,295.8,259.71,301.52Z" transform="translate(-15.37 -15.82)" style="fill: #f5f5f5"/>
    <path d="M251.1,274.28a66.7,66.7,0,0,0-2.95-14.85,54.79,54.79,0,0,0-17.66-26,3.64,3.64,0,0,1-.57-1l.3-.28,2.18,1c.83-1.94-.44-4.74-2.81-5.56-4.42-1.54-8.88-3-13.41-4.2-4.71-1.22-9.53-2.06-14.3-3a22.65,22.65,0,0,0-5.18-.79c-5.62.2-11,1.48-15.37,5.25-2.13,1.84-4.5,3.91-5.52,6.39-2.12,5.15-1.63,10.42,2.48,14.61,2.6,2.64,4.38,5.39,4.65,9.2.4,5.59,1.37,11.16,1.64,16.76.32,6.67.11,13.37.21,20.06a48.2,48.2,0,0,0,.55,5.48,2.23,2.23,0,0,0,1.74,2.09,2.61,2.61,0,0,0,2.9-1.16,11.27,11.27,0,0,0,1.82-3.8,67.77,67.77,0,0,0,.95-9.73,151.67,151.67,0,0,0-1.83-23.4c-.57-4-1.19-8-1.79-12-.15-1-.28-2-.41-3a16.43,16.43,0,0,1,3.28,2.53c2.75,2.71,5.57,5.37,8.15,8.23a5.93,5.93,0,0,1,1.53,5.24l-5.25-6.8a13.76,13.76,0,0,0,6.54,14,4.6,4.6,0,0,0,3.74.36c2.77-.85,4.21-2.79,4.53-5.93a32.93,32.93,0,0,0-1.11-12.45c-.36-1.25-.54-2.55-.81-3.82l.4-.23a4.87,4.87,0,0,1,.83.94,25.83,25.83,0,0,1,2.88,12.38,2.12,2.12,0,0,0,.36,1.41,16.62,16.62,0,0,0,3,2.78c3.48,2.2,7.25.56,7.46-3.5.25-4.77-.06-9.56-.25-14.34a44.59,44.59,0,0,0-.72-5l.45-.4c1.2.61,2.44,1.17,3.6,1.85,5,3,8,7.73,10.52,12.71,3.14,6.15,4.23,13,6,19.61.78,3,1.43,6,2.23,8.94.25.95.84,2,2,1.71a2.67,2.67,0,0,0,1.63-1.74C250.33,281.37,251.39,277.76,251.1,274.28Zm-62.76-30.56c.44-1.8,1.19-3.53,1.2-5.27s-.68-3.56-1.1-5.53c2.37.85,2.46,2.93,2.67,4.72C191.39,240,190.67,242.93,188.34,243.72Zm20.36-3.92a5,5,0,0,1-1.31,0c4-3.95.93-6.86-1-9.92l.37-.33a8.62,8.62,0,0,1,1.77,1.13,8.33,8.33,0,0,1,2.39,5A4.25,4.25,0,0,1,208.7,239.8Zm12.38.12c-.19.31-.65.45-1,.66a4,4,0,0,1,0-1.1c1.12-3.21-.14-5.81-2.1-8.23-.51-.62-1-1.22-1.58-1.83l.39-.52c.78.55,1.61,1,2.34,1.65C222,232.92,222.84,237.08,221.08,239.92Z" transform="translate(-15.37 -15.82)" style="fill: #f5f5f5"/>
    <path d="M193.26,217.52s0,.17-.07.42c-3.61.47-7.15,1.25-10.12,3.36s-5.54,4.48-8.47,6.88l-6.53-8.89a20.7,20.7,0,0,1,6.7-4.52,83.53,83.53,0,0,1,8-2.61c5.85-1.53,6.46.3,9.13,3.48C192.37,216.24,192.81,216.89,193.26,217.52Z" transform="translate(-15.37 -15.82)" style="fill: #f5f5f5"/>
    <path d="M256.71,239.19l-10.61,10c-1.55-2.31-2.93-4.64-4.59-6.75-2-2.6-4.32-5-6.48-7.52a1.49,1.49,0,0,1-.38-1.05c.66-3.23-.51-6.34-3.51-7.6a93,93,0,0,0-11.72-4c-4.78-1.28-9.67-2.19-14.53-3.2-2.65-.56-5.33-1-8-1.53a2,2,0,0,1-1.16-.6,15.19,15.19,0,0,1-3-5,13.75,13.75,0,0,0-3.35-5.13c-2.88-3-6.1-5.63-9.05-8.54-3.35-3.29-6.53-6.76-9.84-10.1q-9-9.07-18.08-18.07a27.34,27.34,0,0,0-3.47-2.54l-.41.39a12.74,12.74,0,0,0,.77,1.23,209.25,209.25,0,0,0,14.59,15.49c5,4.82,9.56,10,14.44,14.89,3.05,3.07,6.33,5.91,9.5,8.86a12.64,12.64,0,0,1,.85.94,31.7,31.7,0,0,0-19,5.76c-5.46,3.68-9.63,8.56-11.15,15.24a10.67,10.67,0,0,0-.27,1.77,4.75,4.75,0,0,1-.2,1.72,9.36,9.36,0,0,1-.81-1c-2.61-4.28-5.16-8.59-7.81-12.85-1.44-2.3-3.18-4.42-4.51-6.78-1.79-3.2-3.3-6.57-5-9.84-3.35-6.55-6.84-13-10-19.65-1.59-3.29-2.68-6.82-4-10.25-.67-1.76-1.18-3.58-1.93-5.31-1.47-3.42-.69-6.46,1.58-9.12a12.91,12.91,0,0,1,10.78-4.6c5.62.18,10.49,2.45,15.21,5.24,9.73,5.77,18.7,12.63,27.76,19.35,4.1,3,7.9,6.49,12,9.6,5.15,3.95,10.49,7.66,15.64,11.62,7.19,5.53,14.3,11.17,21.39,16.83,3.82,3,7.44,6.34,11.3,9.31,5.4,4.16,11,8.13,16.43,12.18A8.2,8.2,0,0,1,256.71,239.19Z" transform="translate(-15.37 -15.82)" style="fill: #f5f5f5"/>
    <path d="M173.7,242.38c-.72.11-1.37.28-2,.32a14.4,14.4,0,0,1-8.75-2.52c-2.4-1.58-2.59-4.22-2.51-6.8.17-4.92,2.6-8.79,6-12.49l4.52,6.09a10.88,10.88,0,0,0,.92,1.2,4.86,4.86,0,0,1,1.26,5.19,14.81,14.81,0,0,0,.37,8C173.55,241.67,173.6,241.93,173.7,242.38Z" transform="translate(-15.37 -15.82)" style="fill: #f5f5f5"/>
    <path d="M243,466.05c0,.08-.07.16-.1.24s-.13.28-.19.41l-14.79-4.05c2.45-9.35,5.07-18.56,4.76-28.2l-.49-.16c-.23.34-.6.66-.67,1-.8,4.3-1.45,8.62-2.35,12.89-.83,3.9-1.92,7.75-2.89,11.62-.15.61-.33,1.21-.54,2a186.28,186.28,0,0,1-57.34-31.38c5.13-6.87,11.71-12.28,16-19.54.1-.16,0-.43-.16-.79A163.64,163.64,0,0,0,166.63,429,191.47,191.47,0,0,1,145,408.1l27.29-25.63c.89,1.27,1.63,2.46,2.5,3.54a41.5,41.5,0,0,0,15.91,12.52,92.2,92.2,0,0,0,10.15,4,54.92,54.92,0,0,0,20.75,2.19,1.35,1.35,0,0,1,1.53,1c1.05,2.6,2.05,5.21,3.06,7.82,1.68,4.32,3.14,8.74,5.09,12.94a17.1,17.1,0,0,0,7,8,5.2,5.2,0,0,0,1.76.78c1.43.19,1.86,1,1.91,2.33Q242.46,451.81,243,466.05Z" transform="translate(-15.37 -15.82)" style="fill: #f5f5f5"/>
    <path d="M288.45,437.23c-4.7,2.89-6.89,7.7-9.6,12.41-.69-.38-1.43-.77-2.16-1.18-2.24-1.26-4.44-2.59-6.72-3.78a2,2,0,0,1-1.06-2.64,14.2,14.2,0,0,1,8.66-9.85,2.51,2.51,0,0,1,1.8.24C282.34,434,285.27,435.54,288.45,437.23Z" transform="translate(-15.37 -15.82)" style="fill: #f5f5f5"/>
    <path d="M341.12,462.9c-1.56.48-2.81.88-4.07,1.24a191.06,191.06,0,0,1-32.85,6.37,13.32,13.32,0,0,1-7.45-1.09c-5.22-2.48-10.53-4.8-15.81-7.16a2.13,2.13,0,0,1-1.33-2.25c-.27-7.3,2.71-13.29,7.32-18.65a9,9,0,0,1,5.2-2.91,3.18,3.18,0,0,1,2,.35c6.45,3.42,13,6.77,19.3,10.4,8.68,5,17.86,8.89,26.88,13.15A9.26,9.26,0,0,1,341.12,462.9Z" transform="translate(-15.37 -15.82)" style="fill: #f5f5f5"/>
    <path d="M267.58,424.47c-.1-.06-.43.22-.84.44a24.32,24.32,0,0,0,8.78,5.58,17.53,17.53,0,0,0-9,11.94c-1.33-.78-2.59-1.6-3.93-2.27a82.83,82.83,0,0,0-9.46-4.42,44.91,44.91,0,0,0-9.3-1.91,12.77,12.77,0,0,1-9.78-6.66,45.6,45.6,0,0,1-4-9,121.22,121.22,0,0,0-13.86-28.41c-4.44-6.94-8.44-14.16-12.55-21.3a15,15,0,0,1-1.44-4c-.4-1.66.74-2.6,2.34-2,2.54.89,4.26,2.84,6,4.79,5.06,5.78,8.43,12.6,11.81,19.4,1.76,3.53,3.39,7.13,5.33,10.56a12.38,12.38,0,0,0,3.43,3.53c1.56,1.15,2.73.7,3.48-1.1a5.4,5.4,0,0,0,.43-2.27,36,36,0,0,0-.54-4.25,4.32,4.32,0,0,0-.54-1.13l-.6.09c-.19,2.37-.39,4.74-.6,7.38-2.22-1.2-3.19-3.12-4.57-4.82,2-2.88,3.72-6,6.45-8.24a3.38,3.38,0,0,1,5.06.36,47.37,47.37,0,0,1,4.63,7c1.64,3.07,2.74,6.43,5.21,9a2.16,2.16,0,0,1,.3.63l.52-.22a2.83,2.83,0,0,0,0-1.05c-1.77-3.84-3.58-7.67-5.38-11.5-.09-.2-.28-.47-.21-.62.76-1.85,1.2-3.9,3.38-4.78s4.08-.72,5.55,1.05a40.55,40.55,0,0,1,4.06,6.06,35.2,35.2,0,0,0,6,7.39,1.14,1.14,0,0,0,.46.28,3.22,3.22,0,0,0,.74-.1c-.61-1-1.19-1.91-1.67-2.83a1.72,1.72,0,0,1-.25-1.21c1.71-4.17,2-8.56,2.2-13a200.35,200.35,0,0,0-.74-27.5c-.22-2.11-.44-4.22-.47-6.33a2.53,2.53,0,0,1,.91-2,2.73,2.73,0,0,1,2.2.59,11.33,11.33,0,0,1,4,6.44,58.09,58.09,0,0,1,1.48,21.8c-.81,6.25-2.12,12.43-2.95,18.67-.64,4.88-1,9.81-1.26,14.73a22.24,22.24,0,0,0,.68,4.89,3.83,3.83,0,0,0,.53,1L270,415l.57-11.28a10.4,10.4,0,0,1,7.52.48c2.81,1.29,3.64,4.7,1.94,8-1.88,3.6-4.66,6.49-7.49,9.33-.65.66-1.3,1.31-2,1.93C269.73,424.19,269.05,425.44,267.58,424.47Z" transform="translate(-15.37 -15.82)" style="fill: #f5f5f5"/>
    <path d="M217,328.71c-.87-6.54-3.64-11.91-9.31-15.56a11.81,11.81,0,0,0-1.08-.57,2.11,2.11,0,0,0,.87,2.66,2.64,2.64,0,0,1,1.43,2.56c-.21.17-.42.34-.62.52l-1.61-2.79-1.87,2.3-.35-.24a2.48,2.48,0,0,1,.23-.89c1-1.39.47-2.95.49-4.43,0-.29-.49-.75-.84-.86a23.43,23.43,0,0,0-3.85-1,18.34,18.34,0,0,0-8.33.67c1.18,1.54,2.33,3,1.91,5.33l-3-4.75a14.66,14.66,0,0,0-8,6.27,29.34,29.34,0,0,1,3,1.11c1.28.63,1.75,1.45,1.45,2.33l-1.88-1.21c.28,1.09.49,1.89.69,2.69l-.6.23a7.66,7.66,0,0,1-.89-1.82,2.47,2.47,0,0,0-2.62-2.13c-4.25,7.26-3.36,14.69.06,21.83,2.17,4.55,6.16,7.6,11.31,9.68a14.91,14.91,0,0,0-.28-2.65c-.36-1.13-1-2.18-1.3-3.32a11.66,11.66,0,0,1-.16-2.52l.69-.1c.29.93.58,1.87.91,2.95l2-2.55.63.41-1.48,2.76c-.19.34-.57.73-.52,1,.27,1.36.66,2.69,1.06,4.23a16.69,16.69,0,0,0,8.49-.23c-.18-2.29-.66-4.46.27-6.5h.72v6c.92-.33,1.44-.47,1.9-.7a16.75,16.75,0,0,0,9-10.59C216.58,335.55,217.49,332.24,217,328.71Zm-7.88,2.63c-.48,2-.9,2.12-2.82.93l-.93.57c-2-.57-.76-2.26-1.26-3.32,0-.07.17-.31.32-.39.67-.38,1.35-.72,2.18-1.16l.8.76C208.87,328.4,209.57,329.48,209.13,331.34Z" transform="translate(-15.37 -15.82)" style="fill: #f5f5f5"/>
    <path d="M265.34,308.38a7.78,7.78,0,0,1-.5,1.41,3.74,3.74,0,0,1-.84.73,2.72,2.72,0,0,1-.23-1c.15-.85.43-1.67.66-2.52a19.63,19.63,0,0,0-7.48-3.89c-.15,1.88,2.18,2.9,1.17,5.1l-1.75-2.51c-.25.85-.41,1.36-.65,2.18-.37-.52-.69-.77-.69-1a5.64,5.64,0,0,1,.33-1.83c.73-1.8.44-2.43-1.42-2.52a38.53,38.53,0,0,0-4.56,0,20.78,20.78,0,0,0-2.92.64c1.61,2.92,1.64,3.63.15,4.92a6.66,6.66,0,0,1-.1-1.54,2.13,2.13,0,0,0-1.29-2.36,2.16,2.16,0,0,0-1.69.28,18.2,18.2,0,0,0-3.3,2.23c-3.89,3.58-5.52,8.27-6.21,13.36a17.74,17.74,0,0,0,2.61,11.73c2.16,3.64,5.54,5.29,9.46,7.1a22.94,22.94,0,0,0,0-2.53c-.09-.76-.43-1.5-.46-2.26,0-.43.38-.87.59-1.31.19.42.38.83.56,1.25s.34.9.51,1.35a13.84,13.84,0,0,0,1.43-.59,18.43,18.43,0,0,0,1.52-1.12,3.56,3.56,0,0,1-2.05,3.05,3.1,3.1,0,0,0-.85,1.67,1,1,0,0,0,.5.82,17.81,17.81,0,0,0,7.86,0c-1.44-2-3.79-3.53-2.26-6.52.26.29.69.56.65.74-.45,2.15,1.27,3.2,2.26,4.62a1.52,1.52,0,0,0,2,.61,40.48,40.48,0,0,0,4.94-2.44c2.93-1.87,2.89-2.1.25-4.39-1.37-1.18-1.83-2.72-1.91-4.86l4.71,6.26C272.58,327,269.41,311.14,265.34,308.38Zm-13.8,15.38c-.64.29-1.29.55-2.07.89l-.95-.72a2.28,2.28,0,0,1-.77.21,1.68,1.68,0,0,1-1-.28c-.13-.13,0-.6.08-.86.19-.47.53-.88.68-1.35a5.92,5.92,0,0,0,.1-1.36l2.09-.53.78.95a1.73,1.73,0,0,1,.47-.15c.33,0,.76-.12,1,0C252.57,321,252.21,323.46,251.54,323.76Z" transform="translate(-15.37 -15.82)" style="fill: #f5f5f5"/>
    <path d="M214.56,346.3c-.2,1.41-.29,2.46-.5,3.49-.47,2.28-.86,4.6-1.55,6.82a9.63,9.63,0,0,1-2,3.24c-1.83,2.15-2.08,2.19-4.53,1a4.45,4.45,0,0,0-4.93.32,2,2,0,0,1-1.61.08c-4-1.45-6.74-4.53-9.43-7.63-1-1.19-2-2.42-3-3.63C197.11,356.14,206,354.37,214.56,346.3Z" transform="translate(-15.37 -15.82)" style="fill: #f5f5f5"/>
    <path d="M268.36,334.92c-.17,2.77-.32,5.29-1.42,7.66-.48,1.05-.73,2.1-2.38,2.19s-2.64,1.82-2.65,3.43a1.48,1.48,0,0,1-1.24,1.67c-4.07,1.18-7.78,1-10.81-2.46-1.88-2.17-3.86-4.24-5.8-6.36l.32-.37C253.39,343.4,261.35,341.69,268.36,334.92Z" transform="translate(-15.37 -15.82)" style="fill: #f5f5f5"/>
    <path d="M379.45,374.33q-1.18,11.26-2.41,22.53c-.47,4.39-1,8.77-1.45,13.17-.49,5.05-.88,10.1-1.28,15.15-.23,2.85-.4,5.7-.6,8.54,0,.2-.14.4-.53.64-.28-.93-.55-1.86-.86-2.78-1.85-5.52-4.21-10.88-5.33-16.65s-2.6-11.76-3.6-17.69c-.9-5.31-1.36-10.69-2-16s-1.52-10.58-2-15.9c-.57-6.75-1-13.52-1.17-20.29-.28-10.28-.3-20.57-.47-30.85,0-1,.6-1.2,1.3-1.48,1.49-.59,2.95-1.23,4.36-1.94.91,1.71,3.13,4.94,4.11,6.6,2.59,4.35,5.24,8.66,7.84,13,.81,1.34,1.48,2.75,2.32,4.07a1.66,1.66,0,0,1-.06,2.11c-2.71,4-5.29,8.09-8.08,12-1.65,2.33-1.59,4.09.17,6.52,3.24,4.45,5.9,9.32,8.92,13.94C379.74,370.73,379.64,372.5,379.45,374.33Z" transform="translate(-15.37 -15.82)" style="fill: #fff"/>
    <path d="M327.85,449c-1.18-2.69-3.66-7.75-3.94-8.7-.85-2.76-1.85-5.48-2.63-8.26-1.2-4.25-2.28-8.53-3.4-12.79-1.22-4.62-2.47-9.23-3.63-13.86s-2.26-9.47-3.37-14.22c-.78-3.31-1.56-6.62-2.25-9.95a2.93,2.93,0,0,1,.27-1.79c2.46-4.94,5-9.83,7.43-14.79,1-2.1,1.74-4.34,2.68-6.48a1.79,1.79,0,0,0-.5-2.31c-5.64-5.35-9.54-12-13.91-18.18l12.91-26.4a4.68,4.68,0,0,1,1,.17c2,.8,3.89,1.66,5.87,2.41.78.29.9.64.81,1.43-.39,3.05-.86,6.12-1,9.19q-.81,24.4-1.44,48.81c-.18,6.87-.28,13.75-.19,20.62.06,3.81.64,7.62.88,11.44s.35,7.92.54,11.88a135.51,135.51,0,0,0,1.89,17.14C326.73,439.17,327.27,444.07,327.85,449Z" transform="translate(-15.37 -15.82)" style="fill: #fff"/>
    <path d="M372.55,449.36c0,.28-.53.58-.86.76a176.58,176.58,0,0,1-25.51,11.12,4.48,4.48,0,0,1-3.78-.25c-3.35-1.64-6.68-3.29-10.07-4.84a2.42,2.42,0,0,1-1.63-2.22c-.71-6-1.39-12.08-2.38-18.08A219.57,219.57,0,0,1,325.94,410c-.46-10-1.52-19.95-1.18-30,.52-15.49.89-31,1.42-46.47.19-5.71.68-11.41,1-17.11,0-.45.1-.9.19-1.67,9.49,2.24,18.7,1.05,28.18-1,0,1.37,0,2.63,0,3.9.24,13.05.36,26.11.78,39.15.15,4.87,1,9.71,1.52,14.56.64,5.63,1.26,11.26,2,16.88.56,4.28,1.21,8.56,2,12.81s1.5,8.62,2.58,12.84c1.24,4.79,2.82,9.49,4.3,14.22,1.42,4.55,3.18,9,4.22,13.67C373.48,444.19,372.77,446.84,372.55,449.36Z" transform="translate(-15.37 -15.82)" style="fill: #fff"/>
    <path d="M282.1,349c-.38,4.75-2.55,8.28-5.6,9,.54-3,1.18-5.93,1.56-8.86s.48-5.82.7-8.71C280.92,341.21,282.37,345.64,282.1,349Z" transform="translate(-15.37 -15.82)" style="fill: #fff"/>
    <path d="M328,450.06l.27,2.2a20.57,20.57,0,0,1,0,2.12l-8.18-4.12-1.59-.82a5,5,0,0,1-3.13-3.64c-.7-3.36-2-6.58-2.81-9.93-1.32-5.78-2.49-11.6-3.57-17.43-1-5.47-1.94-11-2.71-16.47-.89-6.33-1.6-12.7-2.31-19.06-.55-4.94-.93-9.9-1.45-14.85-.48-4.63-.95-9.26-1.58-13.87-.8-6-1.86-11.91-2.6-17.89-.59-4.79-.95-9.62-1.24-14.44-.14-2.38.2-4.79.14-7.18a13.68,13.68,0,0,0-1.81-6.69c-1.22,3.26-.11,6.68-.63,10.12a3.23,3.23,0,0,1-.66-.35c-7-6.59-13.92-13.31-21.09-19.73a14,14,0,0,1-5-8,19.85,19.85,0,0,0-2.63-5.86c-2.25-3.79-4.07-7.87-7.27-11-1.8-1.79-3.6-3.57-5.35-5.41a4.28,4.28,0,0,1-.94-1.74c-.77-2.69-1.45-5.4-2.16-8.11a5.32,5.32,0,0,1,0-.88l23.87,1.83a13.83,13.83,0,0,1-.35,2.21c-1.71,5.23-3.46,10.46-5.21,15.68-.39,1.17-.82,2.34-1.26,3.49s0,2,1.38,2.09,2.86,0,4.29,0c4.51,0,9,0,13.55,0a27.16,27.16,0,0,0,3.53-.52,8,8,0,0,1,.3,1.67c-.2,5-.38,10-.69,15-.11,1.82.32,2.42,2.07,1.83,3.56-1.21,7.09-2.52,10.59-3.9.84-.33,1.12-.09,1.51.55A38.69,38.69,0,0,0,313,308.11c.89.65,1.8,1.25,2.82,2-.92,1.82-1.88,3.64-2.78,5.48-2.69,5.53-5.34,11.08-8.05,16.61-.73,1.49-1.66,2.88-2.36,4.37a2.09,2.09,0,0,0,0,1.73c4.13,6.31,8.07,12.79,13.5,18.12a1.77,1.77,0,0,1,.29,2.42L308.58,375a34.48,34.48,0,0,0-2.13,4.63,6.31,6.31,0,0,0,.32,2.9c1.31,6,2.57,12,4,18,.86,3.57,2.07,7.05,3,10.6,1,3.95,1.86,8,2.94,11.91,1.43,5.22,2.27,10.61,4.67,15.54.78,1.61,1.51,3.25,2.31,4.85.14.26,2.69,4.79,2.94,5s.84,1,1.34,1.57c0-.37-.08-.73-.13-1.09a12.56,12.56,0,0,1,.61,1.54S328.23,450.33,328,450.06Z" transform="translate(-15.37 -15.82)" style="fill: #fff"/>
    <path d="M407.39,370.86c-.23,6.18-.61,12.35-1,18.51-.2,3.13-.57,6.24-.91,9.36-.59,5.49-1.19,11-1.84,16.46q-.88,7.41-1.95,14.79a2.81,2.81,0,0,1-1.22,1.53c-6.37,4.45-12.76,8.89-19.19,13.26-1.67,1.14-3.5,2-5.26,3a6.65,6.65,0,0,1-1,.38c.51-7.43.92-14.59,1.5-21.74.65-8,1.45-16,2.17-24,.38-4.22.67-8.45,1.12-12.66.51-4.76,1.21-9.5,1.71-14.26.61-5.82,1.14-11.65,1.63-17.48.25-3,.39-6,.5-9a11.49,11.49,0,0,0-.38-2.36l-.62,0a12,12,0,0,0-.6,2c-.65,5.72-1.26,11.45-1.88,17.17,0,.21-.09.41-.22,1-.54-.92-.86-1.55-1.25-2.13-2.6-4-5.2-7.93-7.86-11.86a1.59,1.59,0,0,1-.06-2.08c3.07-4.59,6.05-9.25,9.14-13.82a2.17,2.17,0,0,0,.05-2.72c-2.84-4.79-5.48-9.7-8.43-14.42-1.78-2.84-4-5.41-6-8.09-.09-.12-.63-.9-1.12-1.5a41,41,0,0,0,12.37-9.89c1.87-2.23,3.18-4.94,4.74-7.42.16-.27.33-.52.63-1,1.06.94,2.08,1.78,3,2.68a65,65,0,0,1,12.44,16.63c3,5.64,5.91,11.35,7.38,17.62a115.07,115.07,0,0,1,2.17,11.78c.51,4,.54,8,.92,12C408.66,358.75,407.62,364.79,407.39,370.86Z" transform="translate(-15.37 -15.82)" style="fill: #fff"/>
    <path d="M411.71,421.85c-2.27,2.09-4.59,4.11-6.9,6.14-.09.08-.25.06-.42.1l2.8-23.46.25-.05c.39,1.29.79,2.56,1.15,3.86,1.12,4.06,2.24,8.13,3.31,12.21A1.43,1.43,0,0,1,411.71,421.85Z" transform="translate(-15.37 -15.82)" style="fill: #fff"/>
  </g>
  <g id="nofill">
    <path d="M351.53,241.21a113.7,113.7,0,0,1-1.1,12.36,7.73,7.73,0,0,1-3.75,5.84,4.59,4.59,0,0,1-6.75-2.08,27.47,27.47,0,0,1-1.88-16.85,4.29,4.29,0,0,1,.69-1.25l.54.1c.12,1,.26,1.94.35,2.91.3,3.25.5,6.51.9,9.75a15.21,15.21,0,0,0,1.16,3.92c.95,2.23,3.26,2.49,4.86.64a10.06,10.06,0,0,0,2.19-6.14c.24-4.17.34-8.36.32-12.54,0-2.16-.37-4.31-.56-6.47a10.25,10.25,0,0,1,0-1.11l.48-.15a10.92,10.92,0,0,1,.87,1.37A21.47,21.47,0,0,1,351.53,241.21Z" transform="translate(-15.37 -15.82)" style="fill: #090909"/>
    <path d="M332.2,241.68a23.14,23.14,0,0,1-2.74,2.43,21.31,21.31,0,0,1-9.86,3.24,22.92,22.92,0,0,1-12.4-1.95c-2-1-3.63-2.72-5.4-4.15-.18-.15-.17-.54-.24-.82l.33-.29c2.9,2.1,5.74,4.19,9.38,4.92s7.25,1.15,10.79.12c3.37-1,6.58-2.48,9.87-3.75Z" transform="translate(-15.37 -15.82)" style="fill: #0d0d0d"/>
    <path d="M378.27,239.22a7.7,7.7,0,0,1-3.83,3.42,16.93,16.93,0,0,1-12.42.3c-2.37-.81-4.47-2.47-6.59-3.9a9,9,0,0,1-1.71-2.2l.36-.43a17.61,17.61,0,0,1,1.73,1c2.51,1.91,5.06,3.69,8.24,4.33,4.63.92,9,.41,12.87-2.47a4.5,4.5,0,0,1,1.13-.44Z" transform="translate(-15.37 -15.82)" style="fill: #0d0d0d"/>
    <path d="M317,287c-.23.52-.27.86-.44.95-3.22,1.6-6.5,2.59-10.05,1a4.8,4.8,0,0,1-2.57-6.52,9.36,9.36,0,0,1,7.26-5.55,2,2,0,0,1,.81.17l.06.32-1.49.83a10.8,10.8,0,0,0-5,4.79,3.19,3.19,0,0,0,2,4.59,10.87,10.87,0,0,0,5.85.17C314.58,287.4,315.67,287.23,317,287Z" transform="translate(-15.37 -15.82)" style="fill: #0d0d0d"/>
    <path d="M378,285.91a8.23,8.23,0,0,1-7.61,2.57,1.34,1.34,0,0,1-.83-.82l4.29-1.19c3.66-1,4.89-4.16,3-7.46-1.11-1.93-2.92-2.87-4.78-3.8l-2-1c.1-.24.2-.48.29-.72,1.28.36,2.59.64,3.84,1.1C378.21,276,381.32,281.88,378,285.91Z" transform="translate(-15.37 -15.82)" style="fill: #0d0d0d"/>
    <path d="M370.94,184.68a6.85,6.85,0,0,1-1.52-.18c-4.47-1.69-9-1.85-13.22.37-2.05,1.08-3.67,3-5.45,4.54a11.84,11.84,0,0,1-1.95,1.69,12.37,12.37,0,0,1,6.33-7.67C359.94,180.77,368.33,181.24,370.94,184.68Z" transform="translate(-15.37 -15.82)" style="fill: #0d0d0d"/>
    <path d="M337.38,191.31c-2.61-1.85-5.07-4.19-8-5.5s-6.15-1.49-9.23-2.33c4.35-1.72,8.3-.35,12,1.76C335.2,186.92,337.62,190.06,337.38,191.31Z" transform="translate(-15.37 -15.82)" style="fill: #0d0d0d"/>
    <path d="M353,296c-2-.84-4.14.39-3.78,2.51a7.66,7.66,0,0,0,2,3.73,2.63,2.63,0,0,0,3.43.24,8.14,8.14,0,0,0,1.51-1.89C355.64,298.37,354.9,296.79,353,296Zm-.48,5.16a6.29,6.29,0,0,1-1.87-2.72c-.27-.85.64-1.2,1.48-1.11a3.32,3.32,0,0,1,2.36,2.76A1.27,1.27,0,0,1,352.5,301.15Z" transform="translate(-15.37 -15.82)" style="fill: #0f0f0f"/>
    <path d="M332.51,294.59c-.73-1-1.87-1.81-3.08-1.14a3.32,3.32,0,0,0-1.55,2.32,4.5,4.5,0,0,0,1.5,3.71,2.12,2.12,0,0,0,3.6-.71,12.17,12.17,0,0,0,.48-1.92A9.55,9.55,0,0,0,332.51,294.59ZM331,298.53c-.38-.34-.78-.64-1.12-1a1,1,0,0,1-.32-.74c.1-.64.19-1.72.51-1.8.95-.26,1.41.54,1.62,1.41a7.27,7.27,0,0,1,.1,1Z" transform="translate(-15.37 -15.82)" style="fill: #0d0d0d"/>
    <path d="M226.63,380.63c0-.34-.23-.72-.14-1,2-6.91,5.44-12.94,11.2-17.45a13.1,13.1,0,0,1,11.23-2.9c2.57.55,4.19,2.41,5.41,4.6a15,15,0,0,1,1.11,3,4.14,4.14,0,0,1,0,1.26l-.36.11a7.07,7.07,0,0,1-.77-1.16c-2.26-5.54-7.72-7.49-12.91-4.66s-8.49,7.49-11,12.71c-.71,1.44-1.47,2.86-2.26,4.26a11.46,11.46,0,0,1-1.05,1.36Z" transform="translate(-15.37 -15.82)" style="fill: #0a0a0a"/>
    <path d="M225.33,349.28c2.7.84,5.39,1.71,8.1,2.5a3.6,3.6,0,0,0,3.58-.88c1.46-1.36,1.4-3.26-.3-4.85-1.5-1.4-3.18-2.63-4.77-3.95a2.86,2.86,0,0,1-1-1.32,3.74,3.74,0,0,1,1-.08,12.75,12.75,0,0,1,7.05,4.78,5.31,5.31,0,0,1-4.2,8.49,14.08,14.08,0,0,1-9.24-3.42,3.52,3.52,0,0,1-.6-1Z" transform="translate(-15.37 -15.82)" style="fill: #0a0a0a"/>
    <path d="M203,291.76c3.32,1.37,6.55,2.91,8.37,6.27q2.24,4.13,4.06,8.44a24.57,24.57,0,0,1,1,4.56,4.15,4.15,0,0,1-.18,1.16c-1.85-3.91-3.74-7.55-5.29-11.32-1.65-4-5-6.38-8.51-8.61Z" transform="translate(-15.37 -15.82)" style="fill: #0f0f0f"/>
    <path d="M248.47,367.42c-5.7-.15-8.8,3.42-11.33,7.81l-.43-.29a6.26,6.26,0,0,1,.11-1.31,10.75,10.75,0,0,1,6.54-7,5.17,5.17,0,0,1,4.24-.31,3.61,3.61,0,0,1,.73.52Z" transform="translate(-15.37 -15.82)" style="fill: #0f0f0f"/>
    <path d="M230,301.9c-1.08-4.56,1.86-12,4.7-11.24-2.64,3.23-3.26,7.13-4.14,10.94C230.52,301.71,230.26,301.76,230,301.9Z" transform="translate(-15.37 -15.82)" style="fill: #0a0a0a"/>
    <path d="M221.08,239.92c-.19.31-.65.45-1,.66a4,4,0,0,1,0-1.1c1.12-3.21-.14-5.81-2.1-8.23-.51-.62-1-1.22-1.58-1.83l.39-.52c.78.55,1.61,1,2.34,1.65C222,232.92,222.84,237.08,221.08,239.92Z" transform="translate(-15.37 -15.82)" style="fill: #0f0f0f"/>
    <path d="M365.39,214.91c-.16.66-.13,1.71-.52,1.9a9.33,9.33,0,0,0-3.1,2,4,4,0,0,1-.77-.6c-.19-.19-.24-.59-.44-.67-1.33-.52-1.06-1.26-.33-2-.62-1.75-.47-2,1.21-1.86a.85.85,0,0,0,.62-.17c.72-.84,1.34-.78,2,.07C364.48,214,365.67,213.77,365.39,214.91Z" transform="translate(-15.37 -15.82)" style="fill: #0a0a0a"/>
    <path d="M209.13,331.34c-.48,2-.9,2.12-2.82.93l-.93.57c-2-.57-.76-2.26-1.26-3.32,0-.07.17-.31.32-.39.67-.38,1.35-.72,2.18-1.16l.8.76C208.87,328.4,209.57,329.48,209.13,331.34Z" transform="translate(-15.37 -15.82)" style="fill: #0a0a0a"/>
    <path d="M251.54,323.76c-.64.29-1.29.55-2.07.89l-.95-.72a2.28,2.28,0,0,1-.77.21,1.68,1.68,0,0,1-1-.28c-.13-.13,0-.6.08-.86.19-.47.53-.88.68-1.35a5.92,5.92,0,0,0,.1-1.36l2.09-.53.78.95a1.73,1.73,0,0,1,.47-.15c.33,0,.76-.12,1,0C252.57,321,252.21,323.46,251.54,323.76Z" transform="translate(-15.37 -15.82)" style="fill: #090909"/>
    <path d="M330.2,217.5c-.8,1.67-.91,1.7-2.34.68a2,2,0,0,0-.5-.21l-1.61-.55c.32-.9-.44-2.12,1-2.74.56-.24.76-1.3,1.32-1.56.35-.16,1.05.58,1.63.76a2.63,2.63,0,0,0,1.07,0,15,15,0,0,1,1.14,2.54C332.27,218,331,217.45,330.2,217.5Z" transform="translate(-15.37 -15.82)" style="fill: #090909"/>
    <path d="M182.65,361.72a61.32,61.32,0,0,0,6.83,4.92c2.42,1.31,5.17,2,7.7,3.23a12.1,12.1,0,0,1-7.9-1.5C186.16,366.78,182.66,363.31,182.65,361.72Z" transform="translate(-15.37 -15.82)" style="fill: #0f0f0f"/>
    <path d="M174.44,306.55a81.77,81.77,0,0,0-2.16,8.9,48.56,48.56,0,0,0-.29,9.64,94.62,94.62,0,0,0,1.66,9.6,7.69,7.69,0,0,1-1-1.11,16.74,16.74,0,0,1-2.31-8.4c.09-3.77.16-7.55.54-11.29.29-2.75,1.73-5.14,3.15-7.46Z" transform="translate(-15.37 -15.82)" style="fill: #0f0f0f"/>
    <path d="M188.34,243.72c.44-1.8,1.19-3.53,1.2-5.27s-.68-3.56-1.1-5.53c2.37.85,2.46,2.93,2.67,4.72C191.39,240,190.67,242.93,188.34,243.72Z" transform="translate(-15.37 -15.82)" style="fill: #0d0d0d"/>
    <path d="M208.7,239.8a5,5,0,0,1-1.31,0c4-3.95.93-6.86-1-9.92l.37-.33a8.62,8.62,0,0,1,1.77,1.13,8.33,8.33,0,0,1,2.39,5A4.25,4.25,0,0,1,208.7,239.8Z" transform="translate(-15.37 -15.82)" style="fill: #0f0f0f"/>
    <path d="M372.88,280.37a1.49,1.49,0,0,0-.57-.36,66.7,66.7,0,0,0-6.83-2,87,87,0,0,0-12.66-2c-6-.27-12.07.07-18.11.21a60.5,60.5,0,0,0-20.25,4.43,28.13,28.13,0,0,0-3.53,1.92c.08.21.15.42.23.62a108.54,108.54,0,0,0,14.4-3.66,14.2,14.2,0,0,0,7.07,7.52,7.46,7.46,0,0,1,4.08,4.61,23.52,23.52,0,0,0,2.78,5.78c1.74,2.53,4.82,2.14,6.23-.63a6.47,6.47,0,0,0,.71-2.5,43.19,43.19,0,0,0,0-5.8c-.17-2.14,1-3.1,2.66-4a6.38,6.38,0,0,0,2.47-2.55,16.25,16.25,0,0,0,1-3.86c2.91.44,5.86.86,8.8,1.34,3.18.53,6.35,1.15,9.52,1.67a14.5,14.5,0,0,0,2.3,0C373,280.61,373,280.45,372.88,280.37Zm-24.56,2.48c-2.39,1.1-4,2.65-3.69,5.63a48.18,48.18,0,0,1,0,5.24,3.17,3.17,0,0,1,0,.69c-.29,1.19-.7,2.42-2,2.75s-1.92-.77-2.4-1.67a20,20,0,0,1-1.83-4.3,8.53,8.53,0,0,0-4.83-5.68,12.48,12.48,0,0,1-5.3-4.69,16.08,16.08,0,0,1-.74-1.61,145,145,0,0,1,22.61-1.06A3.54,3.54,0,0,1,348.32,282.85Z" transform="translate(-15.37 -15.82)" style="fill: #090909"/>
    <path d="M339.56,202a26.11,26.11,0,0,0-13.32-11.9,21.33,21.33,0,0,0-13.91-1.46c-9,2.3-15.09,7.94-17.76,17-2.11,7.16-1.7,14.27,1.82,20.8,4.31,8,11.19,12.21,22.27,12.21,2.42.12,6.42-.91,10.25-2.57,4.43-1.93,8.35-4.53,10.72-8.95,1.65-3.06,2-6.44,2.43-9.83A25.5,25.5,0,0,0,339.56,202Zm-.9,21.35c-1.25,4.78-4.77,7.74-9,9.88a26.6,26.6,0,0,1-15.76,3,19.69,19.69,0,0,1-15.73-11.41,25,25,0,0,1-1.41-18.4C299,198.44,304.29,193.44,312,191a18.8,18.8,0,0,1,13,1c6.77,2.78,11.75,7.37,14,14.45a55.61,55.61,0,0,1,1.32,6.85C339.75,216.75,339.5,220.13,338.66,223.35Z" transform="translate(-15.37 -15.82)" style="fill: #070707"/>
    <path d="M356.62,526.61c-1.72.48-3.25.93-4.8,1.3-.2,0-.67-.33-.74-.58-1.41-5.08-2.78-10.18-4.17-15.27-1.07-3.94-2.17-7.87-3.24-11.8q-1.34-4.86-2.6-9.73c-.4-1.54-.53-1.6-2.06-1.17-3.49,1-7,2-10.51,2.85a1.39,1.39,0,0,1-1.19-.65,36.46,36.46,0,0,1-.92-3.54,3.61,3.61,0,0,1,.79-.44q14.67-4,29.36-8c.73-.2,1.16-.15,1.36.61.31,1.15.59,2.3,1,3.73l-13,3.62C349.46,500.53,353,513.44,356.62,526.61Z" transform="translate(-15.37 -15.82)" style="fill: #040404"/>
    <path d="M532.2,296.68a46.59,46.59,0,0,0,.11-6.3c-.78-6.16-6.79-8.56-11.54-4.54a75.23,75.23,0,0,0-6,6.43c-2.05,2.21-4.22,4.29-7.18,5.21-6.82,2.13-13.23-.87-15.56-8-1.24-3.78-.85-7.64,0-11.45a1,1,0,0,1,.71-.67c1.47,0,2.94.11,4.4.2.09,0,.18.2.3.35a13,13,0,0,0-1.25,6.78c.16,3.41,1.64,6.15,5,7.28a7.39,7.39,0,0,0,8-2.1c2.57-2.64,4.92-5.5,7.56-8.06a12,12,0,0,1,20.63,7.94,51,51,0,0,1-.24,6c0,.82-.42,1.15-1.23,1.09C534.56,296.79,533.28,296.74,532.2,296.68Z" transform="translate(-15.37 -15.82)" style="fill: #040404"/>
    <path d="M189.72,55.42c2.13-.76,3.78-1.42,5.48-1.9.37-.1,1,.33,1.38.68q8.23,8,16.44,16a3.83,3.83,0,0,0,.65.32c.21-1.55.36-3,.58-4.39.72-4.64,1.48-9.27,2.17-13.92a48.23,48.23,0,0,0,.4-4.81,1.45,1.45,0,0,1,1.11-1.51c1.5-.49,3-1,4.75-1.6-.26,2.09-.43,3.86-.72,5.6-1.34,8-2.73,16.05-4.05,24.08a4.91,4.91,0,0,0,.32,2.29c1.64,4.87,3.35,9.72,5,14.59.12.36,0,1.15-.27,1.24-1.47.57-3,1-4.62,1.51-.52-1.52-1-2.93-1.51-4.35-1.32-4-2.62-7.94-4-11.88A3.82,3.82,0,0,0,211.81,76q-10-9.37-20-18.7C191.22,56.69,190.57,56.16,189.72,55.42Z" transform="translate(-15.37 -15.82)" style="fill: #040404"/>
    <path d="M366.08,476.12c1.77-.95,3.31-1.84,4.93-2.6.32-.15,1,.13,1.33.39,4.92,3.49,9.81,7,14.72,10.53,1.45,1,2.93,2,4.52,3.11V463l5.15-2.69c.07,1.18.18,2.08.17,3-.13,8.94-.3,17.89-.37,26.83a6.3,6.3,0,0,0,.83,2.83c2.4,4.71,4.88,9.38,7.43,14.26-1.47.78-2.93,1.59-4.44,2.3-.17.08-.76-.38-.93-.7-2.41-4.6-4.77-9.23-7.2-13.81a5.08,5.08,0,0,0-1.55-1.68q-11.87-8.22-23.77-16.38A7.62,7.62,0,0,1,366.08,476.12Z" transform="translate(-15.37 -15.82)" style="fill: #040404"/>
    <path d="M506.12,165l2.67,5.6-15,19.57.08.43c1.85,0,3.7,0,5.56,0q9.06.17,18.11.36c.29,0,.74.11.84.31.85,1.6,1.64,3.22,2.62,5.17-1,0-1.67,0-2.33,0q-10-.51-20-1.06c-2.67-.14-5.34-.29-8-.39a3.35,3.35,0,0,0-1.44.37c-5,2.33-9.9,4.69-14.85,7a3.59,3.59,0,0,1-.63.14c-.72-1.38-1.48-2.73-2.08-4.15-.11-.27.33-1,.69-1.21,4.73-2.25,9.52-4.38,14.22-6.69a7.3,7.3,0,0,0,2.33-2.27q8-10.67,16-21.38Z" transform="translate(-15.37 -15.82)" style="fill: #040404"/>
    <path d="M490,140.52l-3.86,2.94-4.5-5.68c-1.4-1.77-2.82-3.52-4.18-5.32-.49-.65-.91-.64-1.49-.17L465.09,141l5.1,6.46c1,1.26,2.05,2.49,3,3.79.17.24,0,.76-.09,1.15,0,0-.07,0-.11.07-2.86,2.49-2.87,2.5-5.18-.42L461.37,144l-12.47,9.81,9.75,12.36-3.84,3-13.15-16.61,35.56-28.2C481.46,129.71,485.66,135,490,140.52Z" transform="translate(-15.37 -15.82)" style="fill: #040404"/>
    <path d="M69.59,161.51l11-17.4,4.07,2.61-8,12.72c4.13,2.63,8.26,5.26,12.64,8,2.5-3.92,5-7.84,7.53-11.8l2.93,1.89c.73.47.92.89.34,1.77-2.28,3.45-4.44,7-6.76,10.66l13.38,8.5,8.48-13.27c1.17.73,2.22,1.37,3.27,2,.7.42.75.84.28,1.57q-5.16,8-10.21,16.08c-.4.62-.73.81-1.43.37q-12.3-7.83-24.61-15.61-5.9-3.73-11.81-7.44Z" transform="translate(-15.37 -15.82)" style="fill: #040404"/>
    <path d="M489.89,256.6c-1.47-7-2.88-13.83-4.32-20.75L530,226.58c1.39,6.69,2.77,13.34,4.18,20.1l-4.72,1c-1.05-5-2.08-9.79-3.13-14.75l-14.62,3c.32,1.63.6,3.18.92,4.73.55,2.56,1.11,5.11,1.7,7.66.19.83,0,1.35-.88,1.54l-.4.1c-3.09.79-3.07.79-3.72-2.29-.7-3.28-1.44-6.55-2.17-9.82a5.62,5.62,0,0,0-.32-.86l-15.37,3.18.84,4c.71,3.36,1.38,6.74,2.17,10.08.25,1.07-.07,1.45-1,1.61C492.3,256.11,491.14,256.36,489.89,256.6Z" transform="translate(-15.37 -15.82)" style="fill: #040404"/>
    <path d="M74.82,218.72l16.31,5.8-1.88,4.95-42.62-15c.3-1.14.48-2.17.84-3.13,1-2.62,1.94-5.27,3.14-7.79a13.44,13.44,0,0,1,11.22-8.09c2.79-.28,5.43.72,7.91,2,6.45,3.3,8.72,11.46,6,18.74C75.42,217,75.16,217.74,74.82,218.72ZM52.87,211l17.42,6.12c4.09-9.33-.33-14.56-5.56-15.77S54.9,202.73,52.87,211Z" transform="translate(-15.37 -15.82)" style="fill: #030303"/>
    <path d="M332.64,40.32,338,41.76c-.39,1.61-.76,3.15-1.15,4.69-1.26,5-2.54,10-3.8,15.08-.79,3.16-1.72,6.3-2.29,9.5-.73,4.1-.12,8,3.35,10.78A12.61,12.61,0,0,0,346.93,84c2.88-1,4.67-3.47,5.73-6.24,1.17-3.08,2.11-6.26,3-9.45,1.33-4.86,2.52-9.76,3.77-14.65.49-1.9,1-3.81,1.54-5.92L366.19,49c-.53,1.95-1.05,3.82-1.53,5.7-1.24,4.89-2.37,9.82-3.71,14.68-1.22,4.46-2.08,9-4.67,13-3.44,5.31-8.3,7.85-14.58,7.46-5.33-.33-10.08-2.13-13.58-6.39A14.48,14.48,0,0,1,325,71.26c.84-4.6,2.1-9.13,3.23-13.68,1.34-5.44,2.73-10.86,4.1-16.28C332.39,41,332.49,40.79,332.64,40.32Z" transform="translate(-15.37 -15.82)" style="fill: #040404"/>
    <path d="M306.49,515.46l16.82,18.84a20.48,20.48,0,0,0-3.34.24c-2.84.74-4.4-.83-6-2.81-4-4.87-8.21-9.58-12.3-14.38a1.9,1.9,0,0,0-2.5-.51c.46,6.27.92,12.58,1.4,19l-5.31.36c-.23-2.77-.47-5.33-.66-7.89q-1-12.89-1.89-25.78c-.24-3.44-.42-6.89-.65-10.34,0-.7.06-1.18.89-1.23,3.53-.2,7.08-.77,10.58-.56,8.32.48,13.23,7.06,11.55,15.2-.91,4.37-3.76,7.27-7.67,9.2l-.62.29S306.69,515.21,306.49,515.46Zm-7.73-3.31a9.92,9.92,0,0,0,10.25-5c1.21-2.25,1.28-7-1.3-9.52-2.37-2.31-7.33-3.25-10.08-1.85C298,501.19,298.38,506.63,298.76,512.15Z" transform="translate(-15.37 -15.82)" style="fill: #040404"/>
    <path d="M124.68,95.61l3.71-3.52,31.39,33.63-.21.51-45-5,22.59,24.16c-1,1.18-2,2.31-3,3.35-.13.13-.88-.09-1.12-.35Q121,135.54,108.9,122.6c-1.92-2-3.84-4.11-5.74-6.18a11.18,11.18,0,0,1-.89-1.35l45.29,5.1Z" transform="translate(-15.37 -15.82)" style="fill: #040404"/>
    <path d="M253,487.62c12.63-.15,22.9,8.74,23.23,22,.34,13.48-9.3,24.07-22.24,24.62a22.94,22.94,0,0,1-24.12-22.34C229.6,499.15,238.54,487.93,253,487.62Zm.21,5a15.66,15.66,0,0,0-10.4,3.52,19.27,19.27,0,0,0-4.15,25.12A16.51,16.51,0,0,0,254,529.12a16,16,0,0,0,12.94-7.39A19,19,0,0,0,269,503.2C266.23,496.25,260.67,492.86,253.19,492.63Z" transform="translate(-15.37 -15.82)" style="fill: #030303"/>
    <path d="M59.74,296.93c-13.46-.09-23.71-9.64-23.91-23.2-.2-13.34,9.26-23,22.7-23.16s23.31,9.68,23.94,22A23.09,23.09,0,0,1,59.74,296.93Zm-.61-6c6-.06,10.28-1.9,14.09-6.08,5.52-6,5.64-16.22.09-22.23-4.93-5.34-11.17-7.07-18.24-5.79-10.94,2-16.66,12.53-13.19,22.71C44.23,286.4,51.31,291.14,59.13,290.91Z" transform="translate(-15.37 -15.82)" style="fill: #040404"/>
    <path d="M184.15,512.88c-.48-11.17-1-22.34-1.43-33.36L167.19,506l-4.91-2.2q12.08-19.77,24-39.38l.6.11c.64,13.14,1.27,26.29,1.91,39.56l31.59-24.39.41.34c-.39,1.24-.77,2.49-1.17,3.72q-3.41,10.47-6.83,20.94c-2,6-4,12-5.93,18.05-.3.9-.74,1.07-1.53.64l-.61-.31c-3.37-1.6-3.35-1.6-2.16-5.08q4-11.72,8-23.45c.27-.8.69-1.55.93-2.39-8.74,7.28-17.77,14.13-26.84,20.92Z" transform="translate(-15.37 -15.82)" style="fill: #040404"/>
    <path d="M471.52,246.75a237.55,237.55,0,0,0-6.24-23,173,173,0,0,0-15.75-34.57,201.42,201.42,0,0,0-15.09-22.11,189.91,189.91,0,0,0-19.88-21.51,4.5,4.5,0,0,1-.47-.59c1.66-3.39,3.29-6.63,4.81-9.92a1.85,1.85,0,0,0-.13-1.7c-.31-.28-1.19-.15-1.71.06-3.23,1.3-6.45,2.66-9.64,4.05a2.4,2.4,0,0,1-2.78-.42,190.7,190.7,0,0,0-20.85-14.73,1.35,1.35,0,0,1-.75-1.79,9.86,9.86,0,0,0,.45-3c-.09-3.87-.3-7.72-.42-11.58a4,4,0,0,1,.35-2c2.32-4.19,4.68-8.36,7.12-12.48.48-.82.46-2.39,1.87-2.19s1.23,1.74,1.37,2.82c.73,5.8,1.4,11.61,2.13,17.41.17,1.36,0,3.16.83,4,1.43,1.42,3.47,2.23,5.55,3.48-1.21-8.62-2.35-16.81-3.5-25.05a4.18,4.18,0,0,1,.68,0c5.19.92,9.56-.49,13-4.59,3.65-4.4,4-10,.92-14.44-3.23-4.64-8.28-6.67-13.18-9.21L381.05,97.35c-.24-.46-.31-.62-.4-.77-2.16-4-4.27-8-6.53-12-.89-1.55-1.81-1.41-2.66.19s-1.57,3.34-2.55,4.9c-3.82,6.07-7.72,12.1-11.57,18.15a1.17,1.17,0,0,1-1.73.5c-1.12-.53-2.26-1-3.43-1.44a196.09,196.09,0,0,0-25.87-7.61c-4.68-1-9.42-1.67-14.12-2.55a8.64,8.64,0,0,1-2.93-1c-2.14-1.35-4.21-2.8-6.24-4.31-4.83-3.6-9.62-7.27-14.43-10.91-.45-.34-.88-.72-1.35-1.11,12.6-8.85,12.3-24.67,6.19-33.68-5.82-8.59-17.88-11.9-28.42-7.28C254.77,42.94,249.35,54,252,65.34a22,22,0,0,0,8.26,12.87c7.88,6,16.41,6.09,25.52,2.15,1,4.89,1.95,9.58,2.95,14.5h-1.62A157.83,157.83,0,0,0,263.75,96c-7.64,1.09-15.28,2.34-22.83,4a167.27,167.27,0,0,0-16.79,4.82,179.38,179.38,0,0,0-22.92,9.46A177.07,177.07,0,0,0,166,136.75c-6.49,5.36-12.48,11.33-18.67,17.06a1.39,1.39,0,0,1-1.67.37,47.7,47.7,0,0,0-5.84-1.62c-6-1.11-11.41,0-15.65,4.69-2.37,2.62-3.89,5.72-2.88,9.35,1.15,4.1,2.53,8.14,4,12.15.46,1.31.73,2.32-.25,3.5a19.39,19.39,0,0,0-2,3.11c-3.62,6.71-7.44,13.33-10.77,20.19a167.18,167.18,0,0,0-11.11,30.64,159.23,159.23,0,0,0-4.85,26c-.46,5.08-1.08,10.17-1.27,15.27-.36,10.23-.29,20.46,1.31,30.62.82,5.22,1.28,10.52,2.45,15.66,1.59,7,3.59,13.85,5.6,20.71a154.83,154.83,0,0,0,9.83,24.37,191.53,191.53,0,0,0,86.49,86.81,185.6,185.6,0,0,0,27.86,11.18,151.26,151.26,0,0,0,25.88,6c7.81,1,15.65,2,23.51,2.36a175.22,175.22,0,0,0,46.95-4c5.73-1.31,11.47-2.64,17.05-4.44,6.37-2.05,12.64-4.49,18.84-7A173.91,173.91,0,0,0,391.28,443,190.24,190.24,0,0,0,436,401a164.1,164.1,0,0,0,14.51-21.83c3.68-6.78,7-13.79,10.18-20.8a138.68,138.68,0,0,0,8.13-23.53c1.63-6.35,2.83-12.82,4-19.27.77-4.21,1.3-8.46,1.71-12.72A183.07,183.07,0,0,0,471.52,246.75ZM401.06,72.84c1.52-2.69,1-3.12,4.16-.86a12.93,12.93,0,0,1,3.9,4.3c1.76,3.36-.06,8-3.55,10.08-3.34,2-6.6,1.36-9.85-.19-.53-.25-1-.59-1.67-1C396.44,81,398.76,76.91,401.06,72.84Zm-128.57,5c-7.26-.66-13.74-7.3-14.8-14L257,59.45c.18-7.73,4.24-14.19,11.31-16.91A16.77,16.77,0,0,1,286.05,46a19.34,19.34,0,0,1,2.64,24.44C284.86,76.14,279.33,78.44,272.49,77.82Zm-144.68,107,1.48,2.91c3.69,7.26,7.27,14.57,11.09,21.76,2,3.8,4.44,7.39,6.68,11.07s4.57,7.67,7,11.42c1.88,2.94,3.64,6.06,6,8.55,3.65,3.82,8.44,5,13.69,4.26a1.78,1.78,0,0,1,1.36.43c1.15,1.19,2.08,2.62,3.31,3.7,1.73,1.5,2.15,3.42,2.37,5.51.1,1,.42,2.08.51,3.14,0,.41-.19,1.11-.49,1.24-4.57,1.9-8.26,5.1-12.09,8.11-2.23,1.76-4.75,3.16-7,4.89-3.65,2.81-5.72,6.81-7.77,10.79-.75,1.47-1.23,3.09-2.07,4.5a36.17,36.17,0,0,1-3.93,5.61,18.51,18.51,0,0,0-3.14,5.76A38.9,38.9,0,0,0,142.19,314c.06,5.43-.39,10.86-.73,16.29-.37,5.83,1.49,11.06,4.2,16.06,1.18,2.18,2.81,4.16,3.72,6.43,1.69,4.23,4.34,7.78,7,11.33a1.94,1.94,0,0,1,.42,1.43c-2.12,6.3.48,14,8.47,16.4l3.17.95-24.92,23.5c-22.59-26.6-37-56.88-42.41-91.16C93.79,268.62,102.83,225.2,127.81,184.82Zm102.68,48.59a54.79,54.79,0,0,1,17.66,26,66.7,66.7,0,0,1,2.95,14.85c.29,3.48-.77,7.09-1.4,10.6a2.67,2.67,0,0,1-1.63,1.74c-1.13.29-1.72-.76-2-1.71-.8-3-1.45-6-2.23-8.94-1.75-6.61-2.84-13.46-6-19.61-2.53-5-5.49-9.75-10.52-12.71-1.16-.68-2.4-1.24-3.6-1.85l-.45.4a44.59,44.59,0,0,1,.72,5c.19,4.78.5,9.57.25,14.34-.21,4.06-4,5.7-7.46,3.5a16.62,16.62,0,0,1-3-2.78,2.12,2.12,0,0,1-.36-1.41,25.83,25.83,0,0,0-2.88-12.38,4.87,4.87,0,0,0-.83-.94l-.4.23c.27,1.27.45,2.57.81,3.82A32.93,32.93,0,0,1,211.24,264c-.32,3.14-1.76,5.08-4.53,5.93a4.6,4.6,0,0,1-3.74-.36,13.76,13.76,0,0,1-6.54-14l5.25,6.8a5.93,5.93,0,0,0-1.53-5.24c-2.58-2.86-5.4-5.52-8.15-8.23a16.43,16.43,0,0,0-3.28-2.53c.13,1,.26,2,.41,3,.6,4,1.22,8,1.79,12a151.67,151.67,0,0,1,1.83,23.4,67.77,67.77,0,0,1-.95,9.73,11.27,11.27,0,0,1-1.82,3.8,2.61,2.61,0,0,1-2.9,1.16,2.23,2.23,0,0,1-1.74-2.09,48.2,48.2,0,0,1-.55-5.48c-.1-6.69.11-13.39-.21-20.06-.27-5.6-1.24-11.17-1.64-16.76-.27-3.81-2.05-6.56-4.65-9.2-4.11-4.19-4.6-9.46-2.48-14.61,1-2.48,3.39-4.55,5.52-6.39,4.36-3.77,9.75-5.05,15.37-5.25a22.65,22.65,0,0,1,5.18.79c4.77,1,9.59,1.8,14.3,3,4.53,1.17,9,2.66,13.41,4.2,2.37.82,3.64,3.62,2.81,5.56l-2.18-1-.3.28A3.64,3.64,0,0,0,230.49,233.41Zm37.65,48.86c1.43.05,2.86,0,4.29,0,4.51,0,9,0,13.55,0a27.16,27.16,0,0,0,3.53-.52,8,8,0,0,1,.3,1.67c-.2,5-.38,10-.69,15-.11,1.82.32,2.42,2.07,1.83,3.56-1.21,7.09-2.52,10.59-3.9.84-.33,1.12-.09,1.51.55A38.69,38.69,0,0,0,313,308.11c.89.65,1.8,1.25,2.82,2-.92,1.82-1.88,3.64-2.78,5.48-2.69,5.53-5.34,11.08-8.05,16.61-.73,1.49-1.66,2.88-2.36,4.37a2.09,2.09,0,0,0,0,1.73c4.13,6.31,8.07,12.79,13.5,18.12a1.77,1.77,0,0,1,.29,2.42L308.58,375a34.48,34.48,0,0,0-2.13,4.63,6.31,6.31,0,0,0,.32,2.9c1.31,6,2.57,12,4,18,.86,3.57,2.07,7.05,3,10.6,1,3.95,1.86,8,2.94,11.91,1.43,5.22,2.27,10.61,4.67,15.54.78,1.61,1.51,3.25,2.31,4.85.14.26,2.69,4.79,2.94,5s.84,1,1.34,1.57c0-.37-.08-.73-.13-1.09-1.18-2.69-3.66-7.75-3.94-8.7-.85-2.76-1.85-5.48-2.63-8.26-1.2-4.25-2.28-8.53-3.4-12.79-1.22-4.62-2.47-9.23-3.63-13.86s-2.26-9.47-3.37-14.22c-.78-3.31-1.56-6.62-2.25-9.95a2.93,2.93,0,0,1,.27-1.79c2.46-4.94,5-9.83,7.43-14.79,1-2.1,1.74-4.34,2.68-6.48a1.79,1.79,0,0,0-.5-2.31c-5.64-5.35-9.54-12-13.91-18.18l12.91-26.4a4.68,4.68,0,0,1,1,.17c2,.8,3.89,1.66,5.87,2.41.78.29.9.64.81,1.43-.39,3.05-.86,6.12-1,9.19q-.81,24.4-1.44,48.81c-.18,6.87-.28,13.75-.19,20.62.06,3.81.64,7.62.88,11.44s.35,7.92.54,11.88a135.51,135.51,0,0,0,1.89,17.14c.85,4.85,1.39,9.75,2,14.64a12.56,12.56,0,0,1,.61,1.54s-.23-.17-.47-.44l.27,2.2a20.57,20.57,0,0,1,0,2.12l-8.18-4.12-1.59-.82a5,5,0,0,1-3.13-3.64c-.7-3.36-2-6.58-2.81-9.93-1.32-5.78-2.49-11.6-3.57-17.43-1-5.47-1.94-11-2.71-16.47-.89-6.33-1.6-12.7-2.31-19.06-.55-4.94-.93-9.9-1.45-14.85-.48-4.63-.95-9.26-1.58-13.87-.8-6-1.86-11.91-2.6-17.89-.59-4.79-.95-9.62-1.24-14.44-.14-2.38.2-4.79.14-7.18a13.68,13.68,0,0,0-1.81-6.69c-1.22,3.26-.11,6.68-.63,10.12a3.23,3.23,0,0,1-.66-.35c-7-6.59-13.92-13.31-21.09-19.73a14,14,0,0,1-5-8,19.85,19.85,0,0,0-2.63-5.86c-2.25-3.79-4.07-7.87-7.27-11-1.8-1.79-3.6-3.57-5.35-5.41a4.28,4.28,0,0,1-.94-1.74c-.77-2.69-1.45-5.4-2.16-8.11a5.32,5.32,0,0,1,0-.88l23.87,1.83a13.83,13.83,0,0,1-.35,2.21c-1.71,5.23-3.46,10.46-5.21,15.68-.39,1.17-.82,2.34-1.26,3.49S266.72,282.22,268.14,282.27ZM290,231.4a147.64,147.64,0,0,1-.88-15.32c-.1-6.86,0-13.74.16-20.61.13-6.34,2-12.3,4.31-18.15,4.51-11.49,12.83-19.66,23.07-26,4.38-2.7,9.47-3.73,14.57-4.39a53.36,53.36,0,0,1,17.06.55c2.45.47,4.81,1.33,7.21,2,0,.16-.05.32-.08.49-.63,0-1.27,0-1.89-.1-11.51-1.54-21.77,1.6-31.43,7.8-8.1,5.2-15,11.72-21.86,18.36a16.24,16.24,0,0,0-4.38,6.95c-.73,2.42.46,4.94,2.63,5.21a5.38,5.38,0,0,0,3.16-.68,76.17,76.17,0,0,0,6.72-4.55c6.1-4.61,12.11-9.34,18.22-13.93,8.16-6.14,17.43-7.34,27.38-6.73,8,.49,14.52,4.09,21.14,7.79a4.64,4.64,0,0,1,1.58,2.75c1.6,5.89,3.09,11.81,4.62,17.72.16.63.34,1.27.61,2.29-.93-.58-1.47-1-2.07-1.28-10.14-5.07-22.09-3.45-29.68,5.43a19.54,19.54,0,0,0-4.42,11.26c-.3,3.53-.76,7-.09,10.6,1,5.44,3.63,9.77,8.44,12.66,9.1,5.47,18.19,5.36,27.26-.1.78-.47,1.57-1,2.31-1.5s1.42-1.14,2.13-1.71l.45.08c0,2,0,4,0,6-.16,6.18-.28,12.35-.55,18.52-.21,4.74-.69,9.47-.94,14.2a93.92,93.92,0,0,1-2.69,17.72,33.18,33.18,0,0,1-9.82,17.08,41.44,41.44,0,0,1-22.81,10.86c-6.43.87-12.85,1.58-19.26.28-8.12-1.65-15.34-5-20.82-11.53a59.31,59.31,0,0,1-10.18-18.8c-2.85-8.12-4.05-16.6-5.4-25C292.38,248.91,291.06,240.17,290,231.4Zm3.45,38.39a9,9,0,0,1-6-1.64,11,11,0,0,1-4.34-7.7c-.45-4.27-.09-8.4,2.69-11.9a30.61,30.61,0,0,1,3.61-3.29C290.81,253.68,292.12,261.65,293.45,269.79Zm79.61-111.07a9.28,9.28,0,0,1,4,4.26c.71,1.64.32,4.41-.85,5.35-3-1.52-5.93-3-8.81-4.49a29.49,29.49,0,0,0-11.6-3.27,58.83,58.83,0,0,0-16.12.45,35.18,35.18,0,0,0-14.57,6.66c-7,5.27-13.9,10.78-20.9,16.1a17.75,17.75,0,0,1-4.37,2.31c-1.35.52-2.13-.06-2-1.5a7.41,7.41,0,0,1,1.08-3.47,31.1,31.1,0,0,1,4.55-5.52c5-4.52,9.92-9.13,15.28-13.16,5.77-4.35,12-8,19.17-9.84,4.58-1.18,9.22-1,13.88-.85C359.56,152,366.5,154.81,373.06,158.72Zm45.45,77.21c-2.16-1.49-4.32-3-6.58-4.31a15.78,15.78,0,0,1-6.17-6.9,37.14,37.14,0,0,0-6.1-9,11.16,11.16,0,0,1-.73-1,75.23,75.23,0,0,1,4.86-5.86c2.52-2.48,5.27-4.72,7.95-7,3.83-3.31,7.69-6.59,11.51-9.92,1-.86.7-1.75-.69-2.2-2.36-.76-4.81-1.26-7.1-2.18-2.85-1.15-5.6-2.55-8.33-4s-5.46-3.06-8.22-4.54c-.77-.42-1-.82-.6-1.63,2.89-6,4.88-12.29,7.06-18.53a30.7,30.7,0,0,1,6.4-10.6,183.86,183.86,0,0,1,43.32,60.09c17.39,38.94,21.09,79.33,11.21,120.73C455.84,373,431.59,403.31,414,419.55c-.61-2.19-1.19-4.2-1.74-6.22-1.26-4.66-2.41-9.35-3.81-14-.6-2-.22-3.81-.08-5.72q.43-6.07.8-12.14c.45-7.13,1-14.26,1.29-21.4a87.16,87.16,0,0,0-.3-10.22c-.39-4.91-.83-9.82-1.54-14.69A61.13,61.13,0,0,0,402.06,315c-2.05-3.85-4.14-7.69-6.45-11.39A58,58,0,0,0,384,290.63a1.81,1.81,0,0,1-.61-2.48,14.84,14.84,0,0,0,1.22-4.36c.14-1.39.93-1.78,2-2,2.46-.58,4.92-1.14,7.4-1.68,1.92-.42,2.11-.7,1.47-2.49-.85-2.41-1.73-4.82-2.67-7.42.68-.1,1.23-.21,1.8-.28,3.74-.48,7.5-.91,11.23-1.45.59-.09,1.45-.53,1.59-1s-.36-1.28-.81-1.67c-1.62-1.37-3.38-2.56-5-3.92-2-1.71-4-3.51-6-5.32a1.72,1.72,0,0,1-.33-1.24c.14-1.64.31-3.28.57-4.9a2,2,0,0,1,.79-1.22c3.24-1.92,6.63-3.62,9.76-5.69a46.3,46.3,0,0,1,10.9-4.94,3.17,3.17,0,0,0,.79-.24c.44-.34,1.05-.69,1.17-1.15S418.91,236.2,418.51,235.93ZM383.25,346.75l-.62,0a12,12,0,0,0-.6,2c-.65,5.72-1.26,11.45-1.88,17.17,0,.21-.09.41-.22,1-.54-.92-.86-1.55-1.25-2.13-2.6-4-5.2-7.93-7.86-11.86a1.59,1.59,0,0,1-.06-2.08c3.07-4.59,6.05-9.25,9.14-13.82a2.17,2.17,0,0,0,.05-2.72c-2.84-4.79-5.48-9.7-8.43-14.42-1.78-2.84-4-5.41-6-8.09-.09-.12-.63-.9-1.12-1.5-.32.18-.65.34-1,.51.91,1.71,3.13,4.94,4.11,6.6,2.59,4.35,5.24,8.66,7.84,13,.81,1.34,1.48,2.75,2.32,4.07a1.66,1.66,0,0,1-.06,2.11c-2.71,4-5.29,8.09-8.08,12-1.65,2.33-1.59,4.09.17,6.52,3.24,4.45,5.9,9.32,8.92,13.94,1.11,1.71,1,3.48.82,5.31q-1.18,11.26-2.41,22.53c-.47,4.39-1,8.77-1.45,13.17-.49,5.05-.88,10.1-1.28,15.15-.23,2.85-.4,5.7-.6,8.54,0,.2-.14.4-.53.64-.28-.93-.55-1.86-.86-2.78-1.85-5.52-4.21-10.88-5.33-16.65s-2.6-11.76-3.6-17.69c-.9-5.31-1.36-10.69-2-16s-1.52-10.58-2-15.9c-.57-6.75-1-13.52-1.17-20.29-.28-10.28-.3-20.57-.47-30.85,0-1,.6-1.2,1.3-1.48,1.49-.59,2.95-1.23,4.36-1.94-.12-.22.37-.67.34-1.17a3.36,3.36,0,0,1,.64.66,41,41,0,0,0,12.37-9.89c1.87-2.23,3.18-4.94,4.74-7.42.16-.27.33-.52.63-1,1.06.94,2.08,1.78,3,2.68a65,65,0,0,1,12.44,16.63c3,5.64,5.91,11.35,7.38,17.62a115.07,115.07,0,0,1,2.17,11.78c.51,4,.54,8,.92,12,.59,6.11-.45,12.15-.68,18.22s-.61,12.35-1,18.51c-.2,3.13-.57,6.24-.91,9.36-.59,5.49-1.19,11-1.84,16.46q-.88,7.41-1.95,14.79a2.81,2.81,0,0,1-1.22,1.53c-6.37,4.45-12.76,8.89-19.19,13.26-1.67,1.14-3.5,2-5.26,3a6.65,6.65,0,0,1-1,.38c.51-7.43.92-14.59,1.5-21.74.65-8,1.45-16,2.17-24,.38-4.22.67-8.45,1.12-12.66.51-4.76,1.21-9.5,1.71-14.26.61-5.82,1.14-11.65,1.63-17.48.25-3,.39-6,.5-9A11.49,11.49,0,0,0,383.25,346.75Zm-204.93,32c-2.54.61-5,1.63-7.61,1.76-4.75.22-8.92-1.51-11.15-6s-1.33-8.76,1.75-12.51a26.71,26.71,0,0,1,4.44-3.63c.62-.48,1.29-.89,1.94-1.33-.08-.2-.15-.4-.22-.6l-3.79.61c-1.06-1.89-1.19-4-1.39-6.09-.23-2.37-.55-4.74-.83-7.11a11.68,11.68,0,0,1-.19-2.2c.49-6.15.79-12.33,1.64-18.43.47-3.36,1.9-6.6,2.88-9.9,2.26-7.64,7.08-13.55,12.81-18.82,1.17-1.07,2.54-1.92,4-3,.32,2.31.35,4-1.35,6-5.55,6.36-8,13.84-6.73,22.36a11.62,11.62,0,0,0,.55,2c.22.64.51,1.25.77,1.88l.44.08a4.73,4.73,0,0,0,.24-1.2c-.32-4.1-.55-8.2.42-12.25A32.69,32.69,0,0,1,183,298.14c0-.06.17-.05.38-.09l.71,1.49a49.61,49.61,0,0,0-3.43,5.26,23.41,23.41,0,0,0-1.89,15.06,2.6,2.6,0,0,1-.14,1.32c-2.75,8.14-1.47,15.75,2.95,23,1.19,2,2.07,4.12,3.34,6,3.16,4.75,6.83,9,11.79,12.05a3,3,0,0,0,1,.46c2.36.36,2.53,2.21,2.94,4.31-9.61-2-15.66-8.45-21.25-15.57l-.41.29a3.49,3.49,0,0,0,.2,1,32,32,0,0,0,13.21,13,27.89,27.89,0,0,0,8.24,3,2.84,2.84,0,0,1,1.6,1.31c2.83,4.79,5.53,9.65,8.38,14.43,3.38,5.69,6.86,11.31,10.3,17a9.26,9.26,0,0,1,.39.85,6.62,6.62,0,0,1-1,.2c-7.67.26-15.15-.56-22.33-3.49-3.83-1.56-7.85-2.71-11.28-5.13-4.27-3-8.28-6.3-11.23-10.72-.2-.29-.37-.61-.65-1.06,1.69-1.07,3.82-1.49,4.64-3.71C179.11,378.51,178.72,378.63,178.32,378.73ZM159.75,347.6c.25,2.47.47,4.94.82,7.4a22.78,22.78,0,0,0,.92,3.18c-1.14,1.39-2.24,2.73-3.48,4.22a32.6,32.6,0,0,1-2.55-3.3c-1.35-2.28-2.52-4.66-3.81-7-.92-1.65-1.91-3.26-2.86-4.89-2.48-4.23-4.63-8.59-4.95-13.59-.13-1.92,0-3.86.1-5.8.18-5.52.51-11,.51-16.57,0-4,1.08-7.59,2.24-11.29.95-3.05,2.82-5.36,4.7-7.83a44.08,44.08,0,0,0,4.41-8.08c2.39-5.08,5.38-9.57,10.22-12.73,3.27-2.12,6.24-4.69,9.44-6.93,1.89-1.33,4-2.39,6.24-3.74.28,2.36.66,4.3.7,6.25.16,7.06.23,14.11.26,21.16a2,2,0,0,1-1,1.3,44.51,44.51,0,0,0-16.2,18.48,50.78,50.78,0,0,0-5,16.4c-.52,5.17-1.14,10.34-1.41,15.53A51.67,51.67,0,0,0,159.75,347.6Zm33-89a4.09,4.09,0,0,1,.7-1.12c.24.33.67.64.68,1a16.23,16.23,0,0,0,8.43,13.13c3.59,2,8.58-.88,9.79-4,.35-.87.54-1.81.81-2.71l.62-.57c.15.4.19.91.47,1.19,2.75,2.76,6.78,3.23,9.52,1.07a7.11,7.11,0,0,0,2.66-5.68c.05-1.63,0-3.27,0-5.23a24.37,24.37,0,0,1,3.82,1,46.78,46.78,0,0,1,6.6,3.41,5.2,5.2,0,0,1,1.59,2.89c1.37,5.15,2.63,10.32,3.91,15.48a14.07,14.07,0,0,1,.45,2.71,1.27,1.27,0,0,1-.65,1,2.69,2.69,0,0,1-1.7.08c-2.84-1.16-5.56-2.7-8.48-3.56A41.73,41.73,0,0,0,215,277.3a93,93,0,0,0-17.18,3.33c-1,.3-1.94.64-3,1-.18-2.88-.29-5.54-.54-8.18-.43-4.49-.94-9-1.42-13.46A4.65,4.65,0,0,1,192.71,258.62Zm-.52-4.21c-.38-1.12-.59-2.3-.87-3.45,1.16.95,2.83,1.46,2.69,3.28,0,.39-.48.75-.74,1.12C192.9,255.05,192.33,254.81,192.19,254.41Zm33.52-9c0-.06.1-.14.16-.21,2.77.89,8.88,7.92,9.72,11.07-2.74-.91-5.51-1.82-8.27-2.77a1.18,1.18,0,0,1-.68-.72C226.29,250.33,226,247.87,225.71,245.41ZM253,271.08c7.68,7.8,13.4,16.63,14.72,27.88-1.36-1.84-3.57-2.68-4.72-4.94a54.72,54.72,0,0,0-5.85-8.62c-1.05-1.32-2.67-2.18-4-3.3a1.37,1.37,0,0,1-.52-1A30.43,30.43,0,0,0,253,271.08Zm2,15.08a32,32,0,0,1,8.44,15,5.22,5.22,0,0,0,.65,1.14l.52-.21c-.08-.91-.17-1.81-.25-2.72l.34-.23a24,24,0,0,1,2.95,3.62c1.72,3.18,3.21,6.48,4.79,9.75,2.81,5.82,3.32,12.09,3.58,18.41.14,3.41.32,6.81.32,10.22a58.69,58.69,0,0,1-1.56,14c-.17.71-.22,1.45-.36,2.17,0,.11-.17.19-.38.42-.65-2.44-1.27-4.75-2-7.34a9.15,9.15,0,0,0,2-7l-.49-.2-2.3,5.86c-.81-.63-1.48-1-.95-2a28.27,28.27,0,0,0,3.22-16c-.05-.74-.13-1.48-.19-2.22l-.63-.07a5.84,5.84,0,0,0-.33,1.45A35.39,35.39,0,0,1,269.17,346c0,.07-.13.12-.34.29l-1.1-.8a20.51,20.51,0,0,0,2.63-9.82c0-1.23-.09-2.46-.09-3.7a2.58,2.58,0,0,1,.25-1.16A15.25,15.25,0,0,0,272,320.41c-.3-1.63-.33-3.31-.62-4.94a17.37,17.37,0,0,0-8.5-12.44,2.46,2.46,0,0,1-1-1.34A32.45,32.45,0,0,0,254,287.93a15.89,15.89,0,0,0-1.46-1.26c-1.21-.95-1.22-1-.13-2.61C253.28,284.76,254.17,285.39,254.94,286.16Zm26.34,118c-1.86-2.31-4.56-2.78-7.33-2.9-1,0-2.07,0-3.21,0,.22-2.07.33-4.09.66-6.07.91-5.49,2.15-10.93,2.8-16.45a129.43,129.43,0,0,0,.55-13.8c0-2.1.72-3.88,2.66-4.67,6-2.46,7.41-9.39,6.79-14.4a11.89,11.89,0,0,0-4.92-8.31,2.25,2.25,0,0,1-.69-1.51c-.22-2.89-.37-5.79-.49-8.69a50.29,50.29,0,0,0-5.31-19.85,43,43,0,0,1-2.23-4.58,26.34,26.34,0,0,1-.78-4.39l.32-.18c.33.26.69.5,1,.79,3.21,3.12,6.34,6.31,9.61,9.35,4.39,4.08,8.89,8,13.29,12.1a3.06,3.06,0,0,1,.82,1.89c.25,3.07.2,6.17.59,9.22,1,7.71,2.25,15.39,3.29,23.1.67,5,1.16,10.06,1.69,15.09,1,9.11,1.75,18.25,2.87,27.34.66,5.28,1.87,10.49,2.75,15.75.68,4.09,1,8.24,1.88,12.28,1.08,5.16,2.52,10.25,3.83,15.36.47,1.81,1,3.59,1.57,5.68-5.06-2.71-9.75-5.23-14.45-7.73-1.59-.85-3.2-1.64-4.81-2.44-.27-.13-.66-.31-.9-.22-1.46.54-2.56-.24-3.75-.85l-17.58-8.94c-.28-.14-.53-.33-.91-.57l2.09-1.89a43.61,43.61,0,0,0,8.53-10.08C283.47,410.31,283.45,406.91,281.28,404.21ZM276.5,358c.54-3,1.18-5.93,1.56-8.86s.48-5.82.7-8.71c2.16.76,3.61,5.19,3.34,8.54C281.72,353.74,279.55,357.27,276.5,358Zm-29.89-49.94c1.49-1.29,1.46-2-.15-4.92a20.78,20.78,0,0,1,2.92-.64,38.53,38.53,0,0,1,4.56,0c1.86.09,2.15.72,1.42,2.52a5.64,5.64,0,0,0-.33,1.83c0,.24.32.49.69,1,.24-.82.4-1.33.65-2.18l1.75,2.51c1-2.2-1.32-3.22-1.17-5.1a19.63,19.63,0,0,1,7.48,3.89c-.23.85-.51,1.67-.66,2.52a2.72,2.72,0,0,0,.23,1,3.74,3.74,0,0,0,.84-.73,7.78,7.78,0,0,0,.5-1.41c4.07,2.76,7.24,18.65,1,24.84L261.65,327c.08,2.14.54,3.68,1.91,4.86,2.64,2.29,2.68,2.52-.25,4.39a40.48,40.48,0,0,1-4.94,2.44,1.52,1.52,0,0,1-2-.61c-1-1.42-2.71-2.47-2.26-4.62,0-.18-.39-.45-.65-.74-1.53,3,.82,4.52,2.26,6.52a17.81,17.81,0,0,1-7.86,0,1,1,0,0,1-.5-.82,3.1,3.1,0,0,1,.85-1.67,3.56,3.56,0,0,0,2.05-3.05,18.43,18.43,0,0,1-1.52,1.12,13.84,13.84,0,0,1-1.43.59c-.17-.45-.33-.9-.51-1.35s-.37-.83-.56-1.25c-.21.44-.61.88-.59,1.31,0,.76.37,1.5.46,2.26a22.94,22.94,0,0,1,0,2.53c-3.92-1.81-7.3-3.46-9.46-7.1A17.74,17.74,0,0,1,234,320.05c.69-5.09,2.32-9.78,6.21-13.36a18.2,18.2,0,0,1,3.3-2.23,2.16,2.16,0,0,1,1.69-.28,2.13,2.13,0,0,1,1.29,2.36A6.66,6.66,0,0,0,246.61,308.08Zm-2.23,32.6c9,2.72,17,1,24-5.76-.17,2.77-.32,5.29-1.42,7.66-.48,1.05-.73,2.1-2.38,2.19s-2.64,1.82-2.65,3.43a1.48,1.48,0,0,1-1.24,1.67c-4.07,1.18-7.78,1-10.81-2.46-1.88-2.17-3.86-4.24-5.8-6.36Zm15.33-39.16c-7.7-2.61-14.59-1.63-21,3.21.4-6,3.92-14.63,6.82-16.92a3.76,3.76,0,0,0,5.06-.18C255.09,291.16,257.88,295.8,259.71,301.52ZM244,285.68a100.93,100.93,0,0,0-4.79,8.93,25.37,25.37,0,0,0-2.34,11.51,3,3,0,0,1-.66,1.6,25.29,25.29,0,0,0-4.49,16.73,18.2,18.2,0,0,0,8,13.74,7.85,7.85,0,0,1,2.06,2.3c3.19,5.12,7,9.62,12.49,12.36,1.23.61,2.54,1.07,3.83,1.56a3.71,3.71,0,0,0,1,.07c.07-.13.13-.26.2-.38l-2-1.66,4.77-.75c.17,2.29.36,4.43.42,6.57,0,.24-.78.71-1.19.7a13.14,13.14,0,0,1-7.55-2.7c-3.1-2.31-6.32-4.49-8.67-7.67-.09-.13-.3-.17-.46-.26-.59,1.64,1.2,3.62,7.27,8.41a16.87,16.87,0,0,0,10.93,3.85c.08,1.5.21,2.87.21,4.25,0,5.57,0,11.15-.08,16.73a3.78,3.78,0,0,1-.8,2.08c-1.31,1.65-2.75,3.19-4.26,4.93L256.14,386c-1.49-2.13-3.59-3.56-6.14-3.42a6.93,6.93,0,0,0-6.34,4.41c-.07.16-.14.33-.22.49s-.08,0-.29.14a6.25,6.25,0,0,1-.61-.7c-2.79-4.29-7.25-4.69-10.62-.85-1.42,1.62-2.65,3.42-4,5.14-.24.32-.49.63-.87,1.12l-1.77-4.15a5.75,5.75,0,0,0,4.9-2.46c.15-.2.1-.56.18-1.14a17.05,17.05,0,0,1-1.87,1,12.55,12.55,0,0,1-2.88.87,2,2,0,0,1-1.53-.78,11.71,11.71,0,0,1-1.71-3.45,7.23,7.23,0,0,1,.11-3.33c.53-2.18,1.29-4.31,1.92-6.46a1.89,1.89,0,0,0-.1-1.16c-2.17,2-2.91,4.63-3.6,7.61l-6.16-10.08a17.09,17.09,0,0,0,6.16-11l-.36-.25a8.64,8.64,0,0,0-.79,1c-.9,1.7-1.71,3.47-2.68,5.13a16.15,16.15,0,0,1-2.19,2.82c-1.14,1.21-1.43,1.14-2.34-.29,5.63-4.68,6.54-11.24,7-17.9.17-2.55-.12-2.57-.92-3.25-.13.44-.27.79-.34,1.15-.78,4.05-1.43,8.14-2.38,12.16a11.07,11.07,0,0,1-3.4,5.6c-.36.32-.78.58-1.28,1l-1.31-1.58c1.12-1.16,2.23-2.17,3.17-3.32,2-2.42,2.41-5.46,2.9-8.39s.39-5.69.76-8.52a20.53,20.53,0,0,1,1.29-4,24,24,0,0,0-1.73-20.52,11.21,11.21,0,0,0-1.88-2.71c-1.48-1.44-2-3.28-2.74-5.1-3.13-7.63-8.56-12.64-16.9-14.05l-1.07-.2c0-2.58.53-3,2.9-2.52,3.83.71,6.69,2.95,9.26,5.67,1,1,1.92,2.11,2.91,3.14a1.74,1.74,0,0,0,1,.47,7.73,7.73,0,0,0-2-4.53,17.74,17.74,0,0,0-7.6-5.82,27,27,0,0,0-4.38-1.11c-1-.19-1.27-.55-1.13-1.58a39.22,39.22,0,0,0,.27-5c0-.87.27-1.43,1.09-1.65,3.9-1,7.79-2.15,11.73-3.06a70.31,70.31,0,0,1,7-1A39.56,39.56,0,0,1,238,283.47c.44.22.84.52,1.35.84-4.12,6.31-7.21,12.89-7.2,20.54,0,.2.29.41.74,1,.42-1.42.79-2.49,1-3.59A48.1,48.1,0,0,1,240,287.15a27.88,27.88,0,0,1,3.19-3.5l1.15,2.17Zm19.11,101c-.51,2.45-1,4.91-1.52,7.36l-.5,0L259,390.48l3.71-3.93Zm-77.42-66.56,1.88,1.21c.3-.88-.17-1.7-1.45-2.33a29.34,29.34,0,0,0-3-1.11,14.66,14.66,0,0,1,8-6.27l3,4.75c.42-2.34-.73-3.79-1.91-5.33a18.34,18.34,0,0,1,8.33-.67,23.43,23.43,0,0,1,3.85,1c.35.11.84.57.84.86,0,1.48.51,3-.49,4.43a2.48,2.48,0,0,0-.23.89l.35.24,1.87-2.3,1.61,2.79c.2-.18.41-.35.62-.52a2.64,2.64,0,0,0-1.43-2.56,2.11,2.11,0,0,1-.87-2.66,11.81,11.81,0,0,1,1.08.57c5.67,3.65,8.44,9,9.31,15.56.48,3.53-.43,6.84-1.37,10.16a16.75,16.75,0,0,1-9,10.59c-.46.23-1,.37-1.9.7v-6H204c-.93,2-.45,4.21-.27,6.5a16.69,16.69,0,0,1-8.49.23c-.4-1.54-.79-2.87-1.06-4.23-.05-.29.33-.68.52-1l1.48-2.76-.63-.41-2,2.55c-.33-1.08-.62-2-.91-2.95l-.69.1a11.66,11.66,0,0,0,.16,2.52c.32,1.14.94,2.19,1.3,3.32a14.91,14.91,0,0,1,.28,2.65c-5.15-2.08-9.14-5.13-11.31-9.68-3.42-7.14-4.31-14.57-.06-21.83a2.47,2.47,0,0,1,2.62,2.13,7.66,7.66,0,0,0,.89,1.82l.6-.23C186.18,322.05,186,321.25,185.69,320.16Zm28.87,26.14c-.2,1.41-.29,2.46-.5,3.49-.47,2.28-.86,4.6-1.55,6.82a9.63,9.63,0,0,1-2,3.24c-1.83,2.15-2.08,2.19-4.53,1a4.45,4.45,0,0,0-4.93.32,2,2,0,0,1-1.61.08c-4-1.45-6.74-4.53-9.43-7.63-1-1.19-2-2.42-3-3.63C197.11,356.14,206,354.37,214.56,346.3ZM194.4,298.76c6.16.91,10.45,4.5,13.72,9.53.61.94,1.08,2,1.77,3.23-11.68-6.17-21.4-4.5-29.55,6,0-1.3-.07-2.29,0-3.27.36-4.33,1.29-8.46,4.2-11.91a2.26,2.26,0,0,1,2.39-1,4.09,4.09,0,0,0,4.3-1.58A3,3,0,0,1,194.4,298.76Zm21.77,91c-4.44-6.94-8.44-14.16-12.55-21.3a15,15,0,0,1-1.44-4c-.4-1.66.74-2.6,2.34-2,2.54.89,4.26,2.84,6,4.79,5.06,5.78,8.43,12.6,11.81,19.4,1.76,3.53,3.39,7.13,5.33,10.56a12.38,12.38,0,0,0,3.43,3.53c1.56,1.15,2.73.7,3.48-1.1a5.4,5.4,0,0,0,.43-2.27,36,36,0,0,0-.54-4.25,4.32,4.32,0,0,0-.54-1.13l-.6.09c-.19,2.37-.39,4.74-.6,7.38-2.22-1.2-3.19-3.12-4.57-4.82,2-2.88,3.72-6,6.45-8.24a3.38,3.38,0,0,1,5.06.36,47.37,47.37,0,0,1,4.63,7c1.64,3.07,2.74,6.43,5.21,9a2.16,2.16,0,0,1,.3.63l.52-.22a2.83,2.83,0,0,0,0-1.05c-1.77-3.84-3.58-7.67-5.38-11.5-.09-.2-.28-.47-.21-.62.76-1.85,1.2-3.9,3.38-4.78s4.08-.72,5.55,1.05a40.55,40.55,0,0,1,4.06,6.06,35.2,35.2,0,0,0,6,7.39,1.14,1.14,0,0,0,.46.28,3.22,3.22,0,0,0,.74-.1c-.61-1-1.19-1.91-1.67-2.83a1.72,1.72,0,0,1-.25-1.21c1.71-4.17,2-8.56,2.2-13a200.35,200.35,0,0,0-.74-27.5c-.22-2.11-.44-4.22-.47-6.33a2.53,2.53,0,0,1,.91-2,2.73,2.73,0,0,1,2.2.59,11.33,11.33,0,0,1,4,6.44,58.09,58.09,0,0,1,1.48,21.8c-.81,6.25-2.12,12.43-2.95,18.67-.64,4.88-1,9.81-1.26,14.73a22.24,22.24,0,0,0,.68,4.89,3.83,3.83,0,0,0,.53,1L270,415l.57-11.28a10.4,10.4,0,0,1,7.52.48c2.81,1.29,3.64,4.7,1.94,8-1.88,3.6-4.66,6.49-7.49,9.33-.65.66-1.3,1.31-2,1.93-.84.76-1.52,2-3,1-.1-.06-.43.22-.84.44a24.32,24.32,0,0,0,8.78,5.58,17.53,17.53,0,0,0-9,11.94c-1.33-.78-2.59-1.6-3.93-2.27a82.83,82.83,0,0,0-9.46-4.42,44.91,44.91,0,0,0-9.3-1.91,12.77,12.77,0,0,1-9.78-6.66,45.6,45.6,0,0,1-4-9A121.22,121.22,0,0,0,216.17,389.72ZM268.91,442a14.2,14.2,0,0,1,8.66-9.85,2.51,2.51,0,0,1,1.8.24c3,1.52,5.9,3.11,9.08,4.8-4.7,2.89-6.89,7.7-9.6,12.41-.69-.38-1.43-.77-2.16-1.18-2.24-1.26-4.44-2.59-6.72-3.78A2,2,0,0,1,268.91,442Zm18-.68a9,9,0,0,1,5.2-2.91,3.18,3.18,0,0,1,2,.35c6.45,3.42,13,6.77,19.3,10.4,8.68,5,17.86,8.89,26.88,13.15a9.26,9.26,0,0,1,.84.55c-1.56.48-2.81.88-4.07,1.24a191.06,191.06,0,0,1-32.85,6.37,13.32,13.32,0,0,1-7.45-1.09c-5.22-2.48-10.53-4.8-15.81-7.16a2.13,2.13,0,0,1-1.33-2.25C279.34,452.71,282.32,446.72,286.93,441.36Zm45.4,14.79a2.42,2.42,0,0,1-1.63-2.22c-.71-6-1.39-12.08-2.38-18.08A219.57,219.57,0,0,1,325.94,410c-.46-10-1.52-19.95-1.18-30,.52-15.49.89-31,1.42-46.47.19-5.71.68-11.41,1-17.11,0-.45.1-.9.19-1.67,9.49,2.24,18.7,1.05,28.18-1,0,1.37,0,2.63,0,3.9.24,13.05.36,26.11.78,39.15.15,4.87,1,9.71,1.52,14.56.64,5.63,1.26,11.26,2,16.88.56,4.28,1.21,8.56,2,12.81s1.5,8.62,2.58,12.84c1.24,4.79,2.82,9.49,4.3,14.22,1.42,4.55,3.18,9,4.22,13.67.53,2.36-.18,5-.4,7.53,0,.28-.53.58-.86.76a176.58,176.58,0,0,1-25.51,11.12,4.48,4.48,0,0,1-3.78-.25C339.05,459.35,335.72,457.7,332.33,456.15Zm74.86-51.52.25-.05c.39,1.29.79,2.56,1.15,3.86,1.12,4.06,2.24,8.13,3.31,12.21a1.43,1.43,0,0,1-.19,1.2c-2.27,2.09-4.59,4.11-6.9,6.14-.09.08-.25.06-.42.1Zm-3.38-138.08c-2,.28-3.74.61-5.53.78-2.11.2-4.23.23-6.34.4-1.52.13-1.87.66-1.42,2.08.67,2.1,1.41,4.16,2.12,6.24.19.55.35,1.11.58,1.84l-7.66,1.72c.33-2.12.7-4,.91-6,.26-2.43.34-4.87.59-7.3a2,2,0,0,1,.75-1.42,10.48,10.48,0,0,0,6.15-6,1.88,1.88,0,0,1,.23-.37Zm-10.15-13.62c-.36,4.41-3.74,9.31-6.46,9.37q.76-10.91,1.54-21.8C391.93,241.11,394.18,246.66,393.66,252.93Zm-8.33-27.87c-1.22,1.95-3.48,3.38-5.5,4.68a20.22,20.22,0,0,1-12.17,3.46,20.7,20.7,0,0,1-14.59-5.13,14.62,14.62,0,0,1-5.27-10,35.84,35.84,0,0,1,.76-12.63c1.74-6.8,6.27-10.9,12.72-13.19s12.66-1.34,18.41,2.06c3.89,2.31,6.18,6.1,7.75,10.3A22.39,22.39,0,0,1,385.33,225.06Zm-192.14-7.12c-3.61.47-7.15,1.25-10.12,3.36s-5.54,4.48-8.47,6.88l-6.53-8.89a20.7,20.7,0,0,1,6.7-4.52,83.53,83.53,0,0,1,8-2.61c5.85-1.53,6.46.3,9.13,3.48.49.6.93,1.25,1.38,1.88C193.29,217.57,193.23,217.69,193.19,217.94Zm-22.26,9a10.88,10.88,0,0,0,.92,1.2,4.86,4.86,0,0,1,1.26,5.19,14.81,14.81,0,0,0,.37,8c.07.26.12.52.22,1-.72.11-1.37.28-2,.32a14.4,14.4,0,0,1-8.75-2.52c-2.4-1.58-2.59-4.22-2.51-6.8.17-4.92,2.6-8.79,6-12.49Zm1.37,155.49c.89,1.27,1.63,2.46,2.5,3.54a41.5,41.5,0,0,0,15.91,12.52,92.2,92.2,0,0,0,10.15,4,54.92,54.92,0,0,0,20.75,2.19,1.35,1.35,0,0,1,1.53,1c1.05,2.6,2.05,5.21,3.06,7.82,1.68,4.32,3.14,8.74,5.09,12.94a17.1,17.1,0,0,0,7,8,5.2,5.2,0,0,0,1.76.78c1.43.19,1.86,1,1.91,2.33q.51,14.24,1.07,28.48c0,.08-.07.16-.1.24s-.13.28-.19.41l-14.79-4.05c2.45-9.35,5.07-18.56,4.76-28.2l-.49-.16c-.23.34-.6.66-.67,1-.8,4.3-1.45,8.62-2.35,12.89-.83,3.9-1.92,7.75-2.89,11.62-.15.61-.33,1.21-.54,2a186.28,186.28,0,0,1-57.34-31.38c5.13-6.87,11.71-12.28,16-19.54.1-.16,0-.43-.16-.79A163.64,163.64,0,0,0,166.63,429,191.47,191.47,0,0,1,145,408.1Zm74.27,85c-.85-.14-1.27-.48-1.29-1.43-.19-6.86-.39-13.72-.68-20.58-.11-2.72-.45-5.42-.67-8.12,0-.36,0-.72,0-1.14,5.37.79,10.56,1.68,15.25,4.56,6,3.65,12.05,7.09,18.1,10.59a1.41,1.41,0,0,1,.8,1.73c-.34,3-.52,6-.6,8.94a2.18,2.18,0,0,0,1.13,1.51c2.9,1.48,5.85,2.88,8.82,4.24,2.17,1,4.39,1.86,6.59,2.8a2,2,0,0,1,.49.43l-.09.49c-2.6,0-5.2,0-7.8,0a174.45,174.45,0,0,1-26-1.71C255.89,469.12,251.24,468.25,246.57,467.48Zm153.52-329-20.24,2.66c.87-5.06,1.71-9.93,2.55-14.85C383.51,126.32,398,136.16,400.09,138.48ZM293.51,87.37c3.22,2.29,6.57,4.42,9.7,6.83,1.64,1.26,3.27,2.53,4.86,3.85l.66.55c1.47,1.24,2.91,2.51,4.3,3.84a96.87,96.87,0,0,0,10.18,8.23,54.68,54.68,0,0,1,8.42,8.11c2.71,3.06,5.07,6.44,7.54,9.71,1,1.35,1.42,1.43,2.56.22,4.28-4.57,8.73-9,12.8-13.77q1.47-1.71,2.85-3.51l.18-.22c1.94-2.52,3.77-5.14,5.51-7.8,3.35-5.16,6.37-10.54,9.53-15.83L373,87c.44.7.78,1.27,1.15,1.82,4.43,6.58,6.31,14,7.14,21.76.45,4.15-.35,8.1-1,12.09l0,.15c-.1.67-.2,1.34-.28,2-.49,3.88-1,7.76-1.6,11.62-.29,1.8-.94,3.55-1.37,5.33-.12.48-.25,1.21,0,1.48a2,2,0,0,0,1.55.49c4.19-.59,8.35-1.36,12.55-1.88,3.65-.45,7.34-.69,11-1a24.08,24.08,0,0,0,3.3-.49h0a45.83,45.83,0,0,0,8.54-2.93,2.67,2.67,0,0,1,1.46-.3c-.83,1.64-1.55,3.35-2.5,4.92-.63,1-1.27,2.08-1.94,3.09a.1.1,0,0,1,0,0c-.73,1.12-1.5,2.21-2.33,3.26a41.41,41.41,0,0,0-6.3,12c-1.94,5.4-4.07,10.72-6.12,16.08a9.1,9.1,0,0,0-.78,2,1.73,1.73,0,0,0,.55,1.45c4.89,2.77,9.75,5.61,14.77,8.12a63.93,63.93,0,0,0,8.06,2.81l1.26.44c0,.15.09.31.14.47-2.55,2.17-5,4.54-7.67,6.47a59.32,59.32,0,0,0-13.74,12.9,17.63,17.63,0,0,1-2.27,2.6c-.8.74-.62,1.21,0,1.94,1.89,2.26,3.8,4.51,5.51,6.9a51.29,51.29,0,0,1,2.76,4.92,18.42,18.42,0,0,0,7.43,6.84c1.06.6,2.05,1.33,3.31,2.15A32.12,32.12,0,0,0,412,238.1c-3.77,2.1-7.48,4.31-11.23,6.44-1.36.78-2.76,1.47-4.16,2.17a2.55,2.55,0,0,1-.73.16c-.71-1.72-1.3-3.34-2.05-4.88a7.1,7.1,0,0,0-3.95-3.49,1.86,1.86,0,0,1-1.29-2c-.05-3.51-.23-7-.33-10.51a3.23,3.23,0,0,1,.23-1.46,27.65,27.65,0,0,0,2.73-12,22.59,22.59,0,0,0-4.5-14.21,18.86,18.86,0,0,1-2.95-7.28c-1.22-5.09-2.52-10.16-3.86-15.22-.5-1.9-1.22-3.74-1.81-5.62a1.14,1.14,0,0,1,.08-.77c2.4-4.86,1.2-9.16-3.49-12-2.21-1.32-4.54-2.43-6.79-3.67-2.45-1.35-4.9-2.71-7.31-4.11a41.26,41.26,0,0,0-18.13-5.26,51.16,51.16,0,0,0-26,4.44c-4.08,1.93-7.43,4.92-10.81,7.86A52.06,52.06,0,0,0,290.46,179a62,62,0,0,0-3.7,22.48c.15,6-.17,12,.14,18,.31,6.29,1.11,12.56,1.72,18.84.13,1.33.42,2.64.5,4a1.51,1.51,0,0,1-.66,1.17c-6.37,3.61-8.12,9.48-7.76,16.22a13.63,13.63,0,0,0,5.6,10.52,10.32,10.32,0,0,0,6.25,1.88c1.27,0,1.49.52,1.78,1.51,1.33,4.62,2.65,9.26,4.18,13.82a70.67,70.67,0,0,0,3.11,6.83l-10.07,3.72c.14-1.73.32-3.07.34-4.42.06-4.1.12-8.2,0-12.3,0-2-.55-2.1-2.45-1.85a83,83,0,0,1-8.47.76c-3.64.11-7.29,0-10.93,0a5.81,5.81,0,0,1-.72-.11c.48-1.43.94-2.79,1.39-4.16,1.61-4.93,3.25-9.85,4.79-14.8a11.36,11.36,0,0,0,.33-3.15c0-.83-.4-1.28-1.37-1.35-6.29-.46-12.57-1-18.87-1.48-2.29-.16-4.6,0-6.94,0a20.66,20.66,0,0,1-1.18-2.59,1.65,1.65,0,0,1,.25-1.4c3.25-3.13,6.61-6.14,9.82-9.31,3.84-3.78,7.57-7.67,11.33-11.54.92-1,.66-1.72-.61-2.1-4.69-1.43-9.21-3.21-13.08-6.33-1.07-.86-2-1.87-3.11-2.73-2.73-2.18-5.44-4.39-8.26-6.45-3.49-2.55-7.07-5-10.62-7.44-.56-.38-1.17-.68-2.12-1.23a30.63,30.63,0,0,1,3.7-1.34c6.43-1.34,12.69-3.39,19.25-4.21a24.5,24.5,0,0,0,6.19-1.86c3.87-1.58,7.67-3.33,11.48-5.05,2-.88,2-1.26.58-2.84a152.25,152.25,0,0,1-14-18.14,49.42,49.42,0,0,0-5.45-6.94c-3.89-4.07-6.43-8.95-9-13.86l-1.31-2.51c1.32.14,2.34.18,3.34.37,8.44,1.64,17,1.05,25.51,1.28,6.77.18,13.54.54,20.31.83,1.21,0,1.65-.41,1.69-2,.11-4.89.18-9.78.32-14.67a110.76,110.76,0,0,0-1.2-18.19,49.06,49.06,0,0,1-.32-6.76,64.33,64.33,0,0,0-.63-10.75l-.09-.51a25.8,25.8,0,0,0-.67-2.83c-.93-3.18-1.27-6.53-1.93-10.09C290.56,85.11,292,86.29,293.51,87.37Zm60.81,24.57-13.69,14.62c-.48-.7-.83-1.32-1.28-1.85-3.76-4.41-7.39-8.94-11.37-13.15-1.82-1.93-4.35-3.19-6.49-4.84s-4.24-3.44-6.36-5.16l.3-.39A185.7,185.7,0,0,1,354.32,111.94ZM150.91,155.61c6-5.48,11.84-11.25,18.18-16.36a193.06,193.06,0,0,1,18.2-12.72c5.39-3.41,11-6.45,16.75-9.31a164.27,164.27,0,0,1,24-9.63,184.89,184.89,0,0,1,30.2-7A181.75,181.75,0,0,1,288,98.74c1.78,0,1.76,0,1.82,1.9.17,5.57,0,11.19.68,16.7a131.25,131.25,0,0,1,.9,17.93c-.07,3.74-.23,7.47-.36,11.2a3.42,3.42,0,0,1-.19.64c-1.61-.08-3.2-.17-4.79-.22-5-.19-10-.42-15.07-.52-4.1-.09-8.21.14-12.31-.06-4.45-.22-8.89-.79-13.34-1.18-1.33-.12-2.66-.22-4-.23-1.6,0-2,.65-1.35,2.09,3.24,6.73,6.73,13.26,11.76,18.91,3.08,3.46,5.5,7.49,8.34,11.17,3.07,4,6.27,7.84,9.42,11.75.18.23.31.5.52.84-2,.92-3.79,1.89-5.7,2.62A89.07,89.07,0,0,1,253.9,196c-6.23,1.56-12.58,2.62-18.84,4.07a41.94,41.94,0,0,0-6.33,2.35c-.53.22-1.23.77-1.27,1.22s.61,1.08,1.11,1.34c6.91,3.67,13,8.51,19.26,13.15,2.35,1.76,4.33,4,6.65,5.82a33.63,33.63,0,0,0,10.65,5.38,10.15,10.15,0,0,1,1,.46l-7.84,7.6c-.72-.57-1.52-1.24-2.37-1.86-4.7-3.48-9.47-6.86-14.11-10.42-3.65-2.8-7.11-5.85-10.71-8.72-4.76-3.79-9.57-7.51-14.36-11.26-5.22-4.09-10.27-8.42-15.7-12.22-6.28-4.39-11.95-9.54-18.06-14.12-8-6-16.21-11.68-24.39-17.42-2.33-1.64-4.84-3-7.27-4.52l-.85-.57A4.43,4.43,0,0,1,150.91,155.61ZM124,168.18c-1.47-3.42-.69-6.46,1.58-9.12a12.91,12.91,0,0,1,10.78-4.6q.5,0,1,.06a16.65,16.65,0,0,1,1.73.2l.67.11c.44.07.88.17,1.31.28l.64.16c.39.1.78.21,1.16.34l.21.06c.39.13.78.26,1.16.41s.83.31,1.23.49l1.22.53.35.16c1.54.73,3,1.56,4.54,2.44,9.73,5.77,18.7,12.63,27.76,19.35,4.1,3,7.9,6.49,12,9.6,5.15,3.95,10.49,7.66,15.64,11.62,7.19,5.53,14.3,11.17,21.39,16.83,3.82,3,7.44,6.34,11.3,9.31,5.4,4.16,11,8.13,16.43,12.18a8.2,8.2,0,0,1,.65.6l-10.61,10c-1.55-2.31-2.93-4.64-4.59-6.75-2-2.6-4.32-5-6.48-7.52a1.49,1.49,0,0,1-.38-1.05c.66-3.23-.51-6.34-3.51-7.6a93,93,0,0,0-11.72-4c-4.78-1.28-9.67-2.19-14.53-3.2-2.65-.56-5.33-1-8-1.53a2,2,0,0,1-1.16-.6,15.19,15.19,0,0,1-3-5,13.75,13.75,0,0,0-3.35-5.13c-2.88-3-6.1-5.63-9.05-8.54-3.35-3.29-6.53-6.76-9.84-10.1q-9-9.07-18.08-18.07a27.34,27.34,0,0,0-3.47-2.54l-.41.39a12.74,12.74,0,0,0,.77,1.23,209.25,209.25,0,0,0,14.59,15.49c5,4.82,9.56,10,14.44,14.89,3.05,3.07,6.33,5.91,9.5,8.86a12.64,12.64,0,0,1,.85.94,31.7,31.7,0,0,0-19,5.76c-5.46,3.68-9.63,8.56-11.15,15.24a10.67,10.67,0,0,0-.27,1.77,4.75,4.75,0,0,1-.2,1.72,9.36,9.36,0,0,1-.81-1c-2.61-4.28-5.16-8.59-7.81-12.85-1.44-2.3-3.18-4.42-4.51-6.78-1.79-3.2-3.3-6.57-5-9.84-3.35-6.55-6.84-13-10-19.65-.25-.52-.49-1-.71-1.58s-.45-1.06-.66-1.6a1.88,1.88,0,0,1-.12-.3s0,0,0,0c-.22-.56-.43-1.12-.64-1.68-.62-1.69-1.21-3.4-1.84-5.08S124.77,169.91,124,168.18Z" transform="translate(-15.37 -15.82)" style="fill: #070707"/>
    <path d="M284.84,15.82C136.66,16,15.84,135.9,15.37,284.59A269.58,269.58,0,0,0,285.51,555.28C434.29,555.12,554.8,434.81,555,285.51,554.92,136.62,434.05,15.65,284.84,15.82Zm5.4,535.45c-71.67,1.12-134.39-22.76-186.69-71.74-52.81-49.46-81.17-111.07-84-183.41C16.72,221.92,41,156.91,92.06,103c51.79-54.66,116.19-82.59,191.53-83.21,147.65-1.23,267.66,118.49,267.47,265.82C551.12,431.81,433.42,549,290.24,551.27Z" transform="translate(-15.37 -15.82)" style="fill: #050505"/>
  </g>
</svg>
